/* XPM */
static char *c13425eb8101405fdf076ddce06503928pG6BhmxcfYDKMq0[] = {
/* columns rows colors chars-per-pixel */
"64 64 235 2 ",
"   c #080E0F",
".  c #180B05",
"X  c #1C0D04",
"o  c #1E1106",
"O  c #1D120A",
"+  c #071010",
"@  c #061313",
"#  c #0B1414",
"$  c #0E1817",
"%  c #0B1618",
"&  c #0D1B1B",
"*  c #121615",
"=  c #181A17",
"-  c #131B1B",
";  c #200E04",
":  c #211206",
">  c #24150B",
",  c #28170B",
"<  c #25180E",
"1  c #2A1A0E",
"2  c #241A13",
"3  c #221C17",
"4  c #2C1C12",
"5  c #311E12",
"6  c #16201F",
"7  c #23221E",
"8  c #2B2219",
"9  c #342214",
"0  c #392315",
"q  c #342419",
"w  c #3A2619",
"e  c #36291B",
"r  c #3D2A1C",
"t  c #111F21",
"y  c #132424",
"u  c #182625",
"i  c #162A28",
"p  c #16292A",
"a  c #1A2C2C",
"s  c #1B2F30",
"d  c #1D3232",
"f  c #1F3938",
"g  c #282A24",
"h  c #2C2B24",
"j  c #362E26",
"k  c #2C322D",
"l  c #3A3329",
"z  c #2A3633",
"x  c #233C3C",
"c  c #323932",
"v  c #343D39",
"b  c #422D1E",
"n  c #4A311E",
"m  c #412E20",
"M  c #443123",
"N  c #4B3425",
"B  c #4C3629",
"V  c #46392C",
"C  c #4D3A2A",
"Z  c #563C27",
"A  c #533D2C",
"S  c #473E33",
"D  c #593F33",
"F  c #32413C",
"G  c #5A412E",
"H  c #4B4337",
"J  c #544333",
"K  c #5C4533",
"L  c #5B4838",
"P  c #5D4B3B",
"I  c #71482C",
"U  c #624733",
"Y  c #644A36",
"T  c #6A4D33",
"R  c #644C3A",
"E  c #6A4E3A",
"W  c #724739",
"Q  c #744A3B",
"!  c #7A4E3D",
"~  c #6D5136",
"^  c #67503F",
"/  c #6C513C",
"(  c #72543C",
")  c #7D523E",
"_  c #7A583C",
"`  c #2A4545",
"'  c #2C4A4B",
"]  c #334746",
"[  c #324F50",
"{  c #345454",
"}  c #3B5455",
"|  c #365A5A",
" . c #395C5C",
".. c #385D60",
"X. c #3D6465",
"o. c #3E6768",
"O. c #4B4E42",
"+. c #5C5948",
"@. c #675543",
"#. c #6D5542",
"$. c #6E5946",
"%. c #735642",
"&. c #7C5341",
"*. c #755A45",
"=. c #7C5C43",
"-. c #765C49",
";. c #7B5E49",
":. c #44605B",
">. c #7F6348",
",. c #7D614C",
"<. c #6C6955",
"1. c #456767",
"2. c #436B6B",
"3. c #46706F",
"4. c #446F70",
"5. c #457272",
"6. c #4C7373",
"7. c #497678",
"8. c #4C7C7C",
"9. c #547A7A",
"0. c #80523D",
"q. c #885B39",
"w. c #965936",
"e. c #9C5E3A",
"r. c #A05F3A",
"t. c #8C633D",
"y. c #96673E",
"u. c #9D633B",
"i. c #A7663B",
"p. c #A3653C",
"a. c #A6693D",
"s. c #AC6C3D",
"d. c #B16D3E",
"f. c #AF713F",
"g. c #835641",
"h. c #815D44",
"j. c #806047",
"k. c #896346",
"l. c #82624B",
"z. c #8B664A",
"x. c #8C694C",
"c. c #996744",
"v. c #946B4B",
"b. c #996E4D",
"n. c #9B714C",
"m. c #836851",
"M. c #8B6C54",
"N. c #916F58",
"B. c #8E7459",
"V. c #937257",
"C. c #957359",
"Z. c #9A7458",
"A. c #9A795E",
"S. c #A66943",
"D. c #A46C43",
"F. c #AB6D42",
"G. c #B16E42",
"H. c #AD7244",
"J. c #A67449",
"K. c #AC744B",
"L. c #B47344",
"P. c #BA7544",
"I. c #B77947",
"U. c #BD7A45",
"Y. c #B47549",
"T. c #B57B4C",
"R. c #BC7D4B",
"E. c #A77A56",
"W. c #A57A59",
"Q. c #B87E51",
"!. c #9C7B62",
"~. c #C37D46",
"^. c #C37E4A",
"/. c #C97F48",
"(. c #C37F50",
"). c #54807F",
"_. c #B7804F",
"`. c #BE814D",
"'. c #AC815A",
"]. c #BC8353",
"[. c #B88457",
"{. c #A58266",
"}. c #A9856A",
"|. c #AB876C",
" X c #B08669",
".X c #BA9767",
"XX c #B48E72",
"oX c #BA9376",
"OX c #C68046",
"+X c #C98147",
"@X c #C5824C",
"#X c #CC844B",
"$X c #CE894E",
"%X c #D1854C",
"&X c #D08A4E",
"*X c #C38551",
"=X c #C48A55",
"-X c #C68A57",
";X c #CC8C52",
":X c #D18D52",
">X c #CE9156",
",X c #C6925E",
"<X c #CD925A",
"1X c #D39255",
"2X c #D3955A",
"3X c #D4995C",
"4X c #D89B5C",
"5X c #D69D64",
"6X c #DAA468",
"7X c #DEA96D",
"8X c #DDAB73",
"9X c #E4A96B",
"0X c #E4AA6C",
"qX c #E7B16F",
"wX c #E5B273",
"eX c #E8B475",
"rX c #4D7F81",
"tX c #4E8182",
"yX c #518484",
"uX c #598586",
"iX c #558C8B",
"pX c #5B8D8D",
"aX c #5A908F",
"sX c #5A8F90",
"dX c #5C9293",
"fX c #5B9495",
"gX c #618F8D",
"hX c #629595",
"jX c #639C9C",
"kX c #6A9C9C",
"lX c #62A09F",
"zX c #69A4A4",
"xX c #77A9A9",
"cX c #76B4B5",
"vX c #88BBBC",
/* pixels */
"7XeXwX6X7X7XH.@X~.@XL.%XR.K.R.#X~.H.~.;X@X_.[.Y.y.Y H.@XW.J.'.'..X.X.X.X.X3XqXwX8X6X7X7X7X6X7X6X9X6X5X9X9XeXeXwX8XwXeXeXeX9X9XqX",
"6X1X:X1X2XU.p.d.^.+XS.%X^.E.~.#XU.@XU.R.].5Xn.$.+.H H v c c c c z z c F c F F F O.O.+.<.<.A.*X*X#X+X+X+X#X1XR.f.P.P.f.@X1X+X+X+X",
"6X1X@X;X:X].p.P.#X#Xp.#XR.[.$X#XH.;XS.k.h % % % @ @ @ % t p s a d d d p i 6 $ @ @ @ % @ % & c +.].*X+X/.#X#X%X&X$X#X#X#X+X~.~.~.",
"6X2X`.`.L.3XL.;X:X%Xi.#XR.[.;X~._.*.g x ' | o.8.yXfXfXlXzXfXzXzXlXlXlXlXlXlXlXlXfXiXrX4.| [ F p - H <X>X*X`.P.P.L.L.L.*X>X4X2X$X",
"5X1X;X#Xs.:Xd.@X@X#XU.#XR.T.#X*X@.pXjXfXaXpXiXiXiXyXyX).).).8.8.8.).).).).).iXiXiXiXiXiXpXdXdXfX4.@ k ^.@X#XOXH.G.F.H.T.=X<X5X:X",
"9X&X1X:X*X#Xs.@XT.#X#X:XR.T.@XB.hXdXtXtX8.5.2.X.X.X. . .| { | | { { |  . . .......1.o.4.7.7.rXtXiXiXa ~ #X/./.+X+X/.#X/.#X#X+X#X",
"qX+X:X&X2X+XG.*XH./.#X1X=XK.n.pX8.X.' f d a a p - - $ $ # & = # @ & & & & & & t t u u s a d d x [ 1.5.u F.d.d.d.s.u.d.p.s.i.s.d.",
"qX#X%X#X1X+Xi.`.@X;X%X<XQ.S.rX` # * - = h = O C J K 1 1 P C N < < L ( ( ( ^ P L J V j = = - - = & % %  .D.%X#X%X+X0.^.i.^.G.P.:X",
"qX+X/.#X#X#Xp.S.@X1X:X1XR.n.= 3 @.,.9 / C > b / %.*.1 1 *.R A 4 1 J >.,.>.,.;.-.*.%.L C : M E Z 8 R 8 O 0.~.~.~./.! @XF.@XL.L.#X",
"9X^.~.#X%X/.e.S.R.>X1X2XR.K., A }.Z.K M.K X / *.h.h.5 5 l.( R 4 9 >.V.B.V.V.V.V.V.V.;.;.X r Y U 4 l.G : 0.S.S.K.L.! ^.s.;XL.i.#X",
"9X/.U./.%X/.e.p.P.>X1X1X*XJ.4 }.oXM M.,.A : =.=.h.l.5 1 l.*.R 4 9 -.V.V.C.Z.C.C.C.C.m.m.X 4 k.x.r '.W.1 d.%X%X%X%X) @XS.<X`.G.#X",
"9X/.G.#X%X/.c.F.L.;X:X:XR.q.h.oX|.l C.m.4 9 ( >.h.l.5 5 k.*.E 4 8 ,.C.V.C.C.C.C.C.C.N.,.w X k.b.M W.E.~ t.:X1X<X*X) @Xs.<XR.=X#X",
"9X/.P.#X#X~.p.].].$X#X%X(.b XXoXT V.N.M.X A %.h.l.;.5 5 l.=./ 4 4 *.C.C.C.C.C.C.C.C.N.,.L X >.v.Y v.E.E.> *X=X,X,X&.^.`.1X*X3X$X",
"0X/.U.#X#X~.F.>X1X$X#X#XY.A |.oXJ A.M.,.. K %.l.h.l.5 5 l.;.E 4 9 ,.C.C.C.C.C.C.C.C.V.m.=.X U v.h.k.W.W.Z c.Q.Q.Q.&.^.1X#X;X4X@X",
"0X#X~./.#X#XH.;X;X#XL.#XH.%.oX}.,.C.M.R ; U %.,.l.=.5 9 l.>.#.4 9 ,.C.V.C.C.C.C.C.C.V.l.,.> q b.b._ Z.W.q.q.#X%X^.! P.$X$X1X>XP.",
"0X^.~.%X:X#XF.*X~.~.F.#XZ M.oXV.*.M.,.r 2 C L R R @.3 5 R P A 3 = P -.@.$.$.$.$.$.-.-.$.@.O . k.x.h.b.W.x.M #X#X~.! P.#X:X1X#Xf.",
"5X^.(.%Xp.#XF.*Xd.d.G./.O l j h g h 7 * * * * # # a ] # +     # # + + + + + # { { = # - - * # 7 g h h q e = L.#X#X) G.%X&X%X^.R.",
"6X^.^.#Xe.OXa.`.P.P.F.0.u y kXgX6 :.3.9.uXgXkXxX+ cXzX` uXvXvXvXvXvXvXvXvXxX[ zXcXp pXhXpX9.9.1.{ v 3.cXy - t.^.^.0.K.%X/.#XU.<X",
"7XI.~.%Xu.#Xa.R.~.@Xe.).xX6.gXiX` xXzXkXhXjXkXkX& 7.dXd 2.jXhXdXdXhXdXdXpXiXf tX).@ pXdXpXdXfXjXhX8.7.jX[ 2.a P.^.! L.#X/.#XU.1X",
"7XG.I.#Xa.#Xe.L.&X#X1.zXpX{ f x { rX8.4.4.o.X.1.X.% - d 1.X.X.X.X.X.1.X.X.X.{ t t { X.o.X.1.o.X.2.X.a ` d yX8.y.I.&.L././.#X^.L.",
"9Xf.P.%XL.#Xu.R.4X$X2.o.| [ p p ` ' ' ` x x z s a a a a p p p y y y y y u i y a p y y y u y p y p p - & 6 d ' y.P.! L.#X#X#X~.w.",
"9XU.P.$XL./.i.#XR.#Xa y $ - = 7 7 h 7 * g g g g h h = = h j g = = j S S l S S S H S H H H j O 8 J K J N l l * y.G.! U.#X#X%X~.w.",
"7X/.`.$XL.+Xi.OX;X&Xn.2 |.!.;.*.*.*.B : C K Y Y Y E 4 9 R Y A 2 < R $.%.*.@.*.*.%.*.%.%.*.D , 5 ( ( ( Q >.k.> t.S.W R.#X%X&XU.H.",
"9XOX#X&XL.#Xi.$XU./.L.5 A.A.-.%.*.*.M X J R Y Y R R , 9 E Y G < 4 L -.-.*.*.*.*.*.*.*.*.%.Y > 5 ( ( ( E >.z.< a.r.W *X#X$X#XP.,X",
"0X#X$X&XL.#XH.:XF.@X#X0 M.V.*.*.*.%.r X K R R Y Y E 4 q R Y D > 4 L -.*.*.*.*.-.*.*.%.-.*.@.> 5 ~ ( ( ( =.j.9 f.Q.&.;X#X$X$XF.3X",
"eX#X:X&XR.#Xy.) Q ) ) A oXoX!.C.C.N.C X ( *.*.*.( &.4 w ( / Y < 4 R l.>.l.;.,.,.l.,.,.,.;.*.> w v.z.k.k.v.E.N y.=X&.;X$X#X#Xa.4X",
"eX#X1X&X2X~.L.1X1X2X1XU XXXXZ.C.C.M.B X *.;.h.l.h.l.9 m l.=.=.1 2 R N.C.C.C.C.C.l.C.V.C.N.m.4 0 v.v.v.b.n.W.Z Z F.Q @X#X~./.p.2X",
"wX#X$X&X3X#Xs.$X$X$X$XE XX|.A.C.C.x.N X -.;.l.;.l.h.r M l.>.*.< > K M.V.C.C.C.C.m.m.C.C.N.M.w 0 v.v.v.b.n.E.U 9 F.Q Y.~.P.~.p.2X",
"qX+X~./.2X#XH.>X2X2X<X/ oX}.C.C.C.x.N ; -.;.h.l.h.,.M M j.j.*.9 O G m.V.C.C.C.C.M.K V.C.V.M.M 0 c.v.v.v.b.W.Y 8 S.Q F.L.L.U.T.<X",
"qX/.P.^.~.#Xs.#X#X#X#X/ XX}.C.C.N.M.N ; -.h.l.h.l.;.G B j.j.*.N O J ;.V.C.C.C.C.N.q C.C.V.M.C 0 x.v.v.v.b.W.Q 4 T.) F.a.R.`.>X-X",
"qX/.G.T.K.$XG.1X1X$X$X/ XX{.C.C.C.M.N ; -.;.h.l.h.j.Y B j.j.=.Y X K >.C.Z.C.C.C.N.> A.V.C.m.A 0 v.v.v.v.b.E.E 9 =X&.F.H.@X`.;X<X",
"qX#X*XY.F.;Xp.Y.].T.e.@.XX}.C.C.C.M.N ; &.;.l.h.l.h.%.B >.j.;.*.. K *.C.C.Z.C.C.N.O A.C.C.M.A 5 v.v.v.v.b.E.~ q ;X) T.<X].].;X3X",
"6XeX9X5X6XeXwX0X9X0XwX/ XX{.C.C.C.M.N X =.;.l.=.j.h.;.A >.j.j.*.. C ;.V.C.C.C.C.N.O !.C.N.m.D 5 v.v.v.v.b.W.T b $X0.<X1XH.[.>X3X",
"5XI.1X%X@XG.F.R.@X=X=XT XX{.A.C.C.N.B X =.=.l.l.j.l.l.B =.j.l.%.. r *.V.C.C.V.C.N.> !.C.N.M.B b v.v.v.v.b.W.U B ;X0.<X#X].3X;X<X",
"5X`.:X;XOX#X;X@XU.P.].K XX{.C.C.C.N.B X -.;.j.h.j.j.m.A ,.j.j.( . 4 ;.N.C.C.C.C.C.O !.C.N.m.M 5 v.v.v.v.b.W.A T $X) ;X#X2X=X$X].",
"qX;X#X#X#X@XR.@X@X@X$XB oX{.C.C.V.N.B X *.=.>.j.j.j.k.U ,.j.,.( 2 : ;.N.C.C.V.Z.N.. !.C.N.m.w 5 v.v.v.v.n.E.n t.#X) @X;X3XQ.@XH.",
"5Xa.F.@X1X$X@X~.Y.].2Xb oX|.A.C.C.C.Z X / =.l.j.l.h.,.=.l.,.h.( 8 X ;.B.C.C.C.C.M.O !.N.C.m.5 0 v.v.v.v.n.E.w J.$X) OX$X3X*XOXi.",
"6XF.e.w.H.3X:X+X@XU.L.e oX}.A.V.C.C.K > K =.,.j.h.>.h.>.h.>.j./ q o ,.C.C.C.C.C.m.O !.N.C.l.1 w c.v.v.v.b. X2 T.;X0.@X#X>X;X#Xs.",
"H.p.u.p.u.p.a.f.d.f.s.: XX{.A.C.C.V.R > C =.=.j.,.h.,.h.h.j.l.E 4 m ;.M.C.C.Z.Z.l.: !.N.C.l.1 n b.v.v.b.v.Z.X R.1X0.p.a.H.s.p.u.",
"#X$X>X*XF.^.#X&X:X&X;XX {.C.m.N.C.C.*.> b =.j.j.j.>.j.j.>.h.l.( . K ;.B.V.V.V.V.;.< C.C.M.;.1 Z v.h._ &.h.v.X `.:X) @X#X1X*Xs.#X",
"#X:X@X*XT./.#X&X&X1X1XX A.A.l.,.h.m.-.< 0 *.=.h.l.>.h.l.h.,.=.4 X A ;.N.C.N.M.M.#.M M.m.-.L > U q.=.=._ k.=.: R.;X) ^.#X^.*XR.#X",
"U.$X;X<XT.~.#X$X&X1XI.o ;.!.l.;.,.>.*.. 5 R / / / ( / ( ( / / e 4 q / ,.l.,.,.,.K K ;.l.#.A X ( *.*.q.=.k.~ : `.#X) P.U.^.;X^.s.",
":XR.w.L.$X#X%X1X1X1X@X> J !.,.,.,.,.-.O 5 K #.E / E / ^ / @.R K B q R -.;.,.,.;.A #.,.l.R B . q.=._ =.=.k.C , R.@X&.s.U.#XOX#X#X",
"3XI.OX>XL.d.U.@X`.R.K.$ 7 H S H L L H 3 2 l J J S H J J J J J J j 8 L @.$.$.$.P l $.-.,.@.M . l.k.=./ / / e * F.R.) @X#X#X@X#X2X",
"R.R.R.Q.].=X=X=X[.T.<.8.x & # # & & - y t y - t & & t & & t t & - - & & & & @ t % % % & & & y & % @ & % = # | - T.h.[.,X[.T.K.Q.",
"J.Q.].Q.].K.c.Q._.].>.iXjXjX` cX8.x xXlXhXhXpXuXp 7.zX` } 6.9.6.6.6.6.6.6.1.5.cX8.& 9.9.9.9.9.9.d xXdX% 5.pXyXJ J.J._._.T.T.R.].",
"R.:X@X^.2XF.^.$X#X#X4X1.7.5.u zX{ ` iXiXiXdXpXpX@ uXsX1.X.iXsXsXdXpXsXpXiX9.{ zX2.x iXiXiXiXiXpXx zXrXy iXdX- J.U.^.#X$X@X#X1XR.",
"F.i.~.:XK.w.p.P.#X#X#XY [ X.s & & X.o.o.2.2.6.7.| z ' p 2.rXrXrXtXyXtXyXyX8.x s p 6.8.7.7.5.5.2.` & t {  .p 8 u.~.&X;X`.$XQ.<X,X",
"~.:X5X=Xi.F.~.1X2XY.F.@X2 & $ * - u u a a a a a d - % u d d d d d d d z d d d a a a a p a a a u y - * - $ 6 I.`.$X+X;Xf.#X;XR.d.",
"#X#X%X#X#X+X#X#X$X$X@XP.U.0 A.A.*.L H l 7 * = - - - - - - - = - t & % - - - = - - y = g * 7 l V G Y ( k.5 c.*XU.$X$Xp.#X>XT.F.@X",
"U.~.^.@XP.L.f.L.$X=Xa.F.`., M.!.M.,.,.,.Y > 9 E / / / ( E / / R C 4 R *.h.l.,.,.Y ,.=.#.X N h.q._ =.=.k.o _.f.P.OXf.f.@X*Xr.i.P.",
"@X#X@X$XU.L.F.*X`.].D.F.T.Y.U A.{.-.,.,.#.5 < Y / / / / / / / Y C 4 @.-.,.,.,.,.R ,.;.B : T =._ h._ k.C 1 T.I.*X$X`.#X#X^.~.^.^.",
"L.S.S.Y.(.#X#X@X@X;XOXH.@XD.1 !.{.N.,.,.;.9 , A / / / E / / / K A 2 R *.,.,.,.m.*.,.*.w X _ =.=._ h.z., e #XU.L.R.;X:X#X#X#X#X#X",
"#X#X%X#X%X@XL.`.:XU.#XL.c.n.H.*.!.!.,.,.*.J O N R / / / / / E Y A > R -.,.,.,.,.,.,.R 9 q =.h._ _ k.T , n.#X#X$X#X~.G.F.Y.=X1X#X",
"#X*X;X=X<X1X#XP.].#X=X`.T.c.@XN {.!.M.,.,.*.X r K / / / / / / U A > @.*.,.,.;.;.,.,.L : ( q.=._ h.k.N X =X3X;XOX/.#X$X$XU.R.;X>X",
"@X~.L.G.H.*X;X;XY.@X$Xs.T.c.P.w.m.!.!.Y ,.-.r < Y / / / / / / K A O E *.,.,.,.r l.%.D , =.h._ h.k.>.1 c.>X;X@X@XR.*X<X:XP.R.R.*X",
"%X#X#X+XY.D.2X;XOXL.,X~.D.J.R./.N {.!.M.Y >.R X L Y / / / ~ ~ K J . / *.;.,.,.q ;.#.5 Z &.=.=.h.x.w > Y.H.K.L.R.*X>X2X:XP.Y.;X:X",
") ) &._ Q Q q.) _ Q ) ! g.[.-XL.R._ !.{.B *.@.4 r Y / / / / ( K A . #.*.,.,.C R *.$.< U =._ =.z.Y > E &.W W W Q ( &.h.g.! Q &.g.",
"^.#X;X-XD.T.H.`.*XT.Y.f.c..XR.p.#XI T C.*.r l.M X Y ~ / / G K K A X $.>.m.;.9 ,.*.B , U ( Q *.G 4 1 K.F.^.@XP.~.;X].c.e.s.R.~.@X",
"U.#X$X3X].a.a.#X@XR.T.~.S._.R.2X+X~.0.X X O 9 q : q n C V 4 1 H M X o > 5 9 X > 5 ; O . X . X ; 1 #X#X$X$XF.:X;XH.F.S.r.r.i.d.P.",
"#X&X2X;XS.u.s.@X@X@XR.~.S.K.:X&X%X#XH.I c F v v c k k g g k g g g g g k k k k k c c v v ] ] g 2 D./.#X:Xa.P.#X:X-X*XI.G.~./.%X%X",
"%X#X1X@X~.@XL.@X^.P.*X#XS.J.#X#X#X;XR.n.) +. .1.5.5.1.5.5.2.X.o.o.2.2.2.1.o.2.2.2.2.4.4.1.F 3 B (.$X;X^.#X%X#X:X;X$X*X^.~.~.#X$X",
"#X&X=XT.;XR.L.*XT.R.-X#XY.K.^.#X#X~.@X*X@Xw.D.c.k.D / *._ / _ *.m.*.*.( ( @.Y / %./ / E D Z q.1X<X*X~.^.;X2X4X4X5X6X5X*XK.s.~.#X",
"P.&X#X;XU.@Xf.*X~.^.*X#XQ.K.@X#X#Xs.$X<XOXw.^.L.d.! Q.T._.$X@X3X7X*X;X*X@Xs.S.2X:X2X<XF.F.+X:XS.P.#X:X;XP.a.p.r.p.p.p.r.r.F.#X=X"
};
