/* XPM */
static char *_c2dccc74e004a35dd2ad97b6217e922qUbvVdM90O84TTGD[] = {
/* columns rows colors chars-per-pixel */
"64 64 245 2 ",
"   c #030202",
".  c #060605",
"X  c #06090A",
"o  c #090C0D",
"O  c #160807",
"+  c #1C0906",
"@  c #1C0A0A",
"#  c #14120E",
"$  c #0C0E11",
"%  c #1B0C15",
"&  c #180C18",
"*  c #0C1113",
"=  c #121314",
"-  c #1C1516",
";  c #121619",
":  c #151B1D",
">  c #230D08",
",  c #2B130A",
"<  c #381A0B",
"1  c #210E13",
"2  c #2B1513",
"3  c #24131B",
"4  c #281619",
"5  c #331611",
"6  c #321913",
"7  c #381D18",
"8  c #3E200C",
"9  c #3D241B",
"0  c #171D21",
"q  c #191E21",
"w  c #311A21",
"e  c #1C2325",
"r  c #1F2629",
"t  c #222529",
"y  c #22292C",
"u  c #3A2526",
"i  c #3B342E",
"p  c #292C32",
"a  c #362D36",
"s  c #3B2D34",
"d  c #2C3235",
"f  c #393437",
"g  c #471E10",
"h  c #46220B",
"j  c #4A260C",
"k  c #4C280E",
"l  c #51290E",
"z  c #482517",
"x  c #572D15",
"c  c #4F3015",
"v  c #5D3214",
"b  c #5A331A",
"n  c #623215",
"m  c #673B1D",
"M  c #472A25",
"N  c #562624",
"B  c #49302C",
"V  c #573528",
"C  c #483434",
"Z  c #573A37",
"A  c #632A26",
"S  c #6C3A29",
"D  c #643E34",
"F  c #7E3533",
"G  c #554435",
"H  c #5A423B",
"J  c #654422",
"K  c #6E4221",
"L  c #734824",
"P  c #744926",
"I  c #764E28",
"U  c #7C5329",
"Y  c #6B4639",
"T  c #734A37",
"R  c #744B3B",
"E  c #7B4E3C",
"W  c #6D5132",
"Q  c #7D523E",
"!  c #7B5838",
"~  c #7E623A",
"^  c #353743",
"/  c #4A3F45",
"(  c #3C4348",
")  c #3F5C73",
"_  c #47454A",
"`  c #554545",
"'  c #4E5150",
"]  c #575859",
"[  c #674B45",
"{  c #65534B",
"}  c #7C5341",
"|  c #74554F",
" . c #765849",
".. c #645858",
"X. c #73655B",
"o. c #5D5B65",
"O. c #685E62",
"+. c #5D6465",
"@. c #696567",
"#. c #746A67",
"$. c #72726E",
"%. c #777677",
"&. c #8D3D36",
"*. c #865D2D",
"=. c #8E4939",
"-. c #895735",
";. c #80523D",
":. c #975A36",
">. c #9C5E3A",
",. c #A0533C",
"<. c #8C6435",
"1. c #936932",
"2. c #9E623C",
"3. c #9A7035",
"4. c #A3653C",
"5. c #A9663C",
"6. c #A6693D",
"7. c #AC6B3D",
"8. c #B06D3D",
"9. c #B1713E",
"0. c #855846",
"q. c #995C4B",
"w. c #A55649",
"e. c #9A6646",
"r. c #856756",
"t. c #976B51",
"y. c #A56B43",
"u. c #A46944",
"i. c #AB6D42",
"p. c #B16E41",
"a. c #AD7144",
"s. c #AC744B",
"d. c #A9764C",
"f. c #B47344",
"g. c #BA7644",
"h. c #B87847",
"j. c #BD7A45",
"k. c #B37549",
"l. c #B57B4C",
"z. c #BC7C4B",
"x. c #B36A54",
"c. c #A97657",
"v. c #B37D51",
"b. c #BA7D55",
"n. c #83746B",
"m. c #8E776A",
"M. c #867B78",
"N. c #B87762",
"B. c #C57B47",
"V. c #C27C46",
"C. c #C37E4A",
"Z. c #C47D5A",
"A. c #C37E69",
"S. c #C37E70",
"D. c #7C8074",
"F. c #AD8C4D",
"G. c #B6804D",
"H. c #BE814D",
"J. c #BC8353",
"K. c #B98557",
"L. c #8B837D",
"P. c #95867C",
"I. c #B88D6D",
"U. c #C58046",
"Y. c #CB8247",
"T. c #C4824C",
"R. c #CC844B",
"E. c #C68A4F",
"W. c #CE894E",
"Q. c #D1854B",
"!. c #D18A4E",
"~. c #C38652",
"^. c #CA8751",
"/. c #C48A54",
"(. c #CC8B53",
"). c #C38D5A",
"_. c #CD8F58",
"`. c #D18D52",
"'. c #CE9156",
"]. c #C5915C",
"[. c #CC925A",
"{. c #D39255",
"}. c #D3955A",
"|. c #D5995C",
" X c #D89A5B",
".X c #CBA35B",
"XX c #CC9860",
"oX c #D39A62",
"OX c #DA9F64",
"+X c #D29468",
"@X c #C68771",
"#X c #D99A7A",
"$X c #C9A764",
"%X c #DBA469",
"&X c #D9A575",
"*X c #E3A86A",
"=X c #E4AA6B",
"-X c #E8B26F",
";X c #E3A977",
":X c #E5B273",
">X c #E9B474",
",X c #7A7A81",
"<X c #887F80",
"1X c #718E94",
"2X c #8B8787",
"3X c #968C86",
"4X c #8F908B",
"5X c #979289",
"6X c #999897",
"7X c #A59A8B",
"8X c #B59889",
"9X c #96AC9A",
"0X c #ABA494",
"qX c #B4A897",
"wX c #85AAA9",
"eX c #ADB1A6",
"rX c #B7BAB9",
"tX c #CE9F86",
"yX c #D9A487",
"uX c #D0AE94",
"iX c #E7AB87",
"pX c #EBBA9A",
"aX c #C2BBAA",
"sX c #DCBCA4",
"dX c #EDBFA0",
"fX c #EEC399",
"gX c #CCCABA",
"hX c #D1CBB6",
"jX c #ECC3A8",
"kX c #F2C6A7",
"lX c #E8C4B3",
"zX c #F5CDB3",
"xX c #F7D1B5",
"cX c #F7D4BB",
"vX c #F9D5BB",
"bX c #98DCE9",
"nX c #CBCBC7",
"mX c #DDDBD0",
"MX c #E6D7C8",
"NX c #F8DECA",
"BX c #E8E9D9",
"VX c #F4E3D1",
"CX c #ECECEC",
"ZX c #F9ECE4",
"AX c #F6F4EA",
/* pixels */
"%X>X>X%X%X*Xa.z.V.U.k.Q.C.d.C.R.U.i.B.'.T.G.T.f.2.Y 7.R.C.j.W.J.>X=X=X=X=X*X-X>X&X%X*X*X*X%X*X%X*XOXOX*X-X>X>X:X&X:X>X>X>X=X=X=X",
"%X}.(.{.{.H.4.f.T.Y.u.Y.z.d.T.R.h.H.j.z.T. Xk.9.y.R R.(.T.(.(.~.>X!.(.`.`.^.(.~.f.:.i.U.R.R.Q.Q.R.Y.Y.Y.T.{.j.f.g.j.g.T.'.U.U.Y.",
"%X{.T._.`.J.4.g.Q.Q.4.Q.H.K.^.R.i.(.7.f.(.Q.6.a.J.Q Y.a.(.T.(.H.:X~.$ o o $ o o y.i.T.Y.R.Q.R.Y.Q.T.Y.C.Y.R.!.R.W.Q.R.R.Y.B.C.V.",
"%X{.z.T.f.}.f.(.`.R.4.R.z.K.!.V.H.H.k.~.'.T.h.z.oX} `.K.f.h.T.T.o * ; : 0 y p p t o _.`. X{.{.{.{.}.|.'.~.z.h.f.f.a.f.T.}.|.}.W.",
"OX`.(.T.7.{.8.T.H.T.r.c.l.v.R.~.[.H.[.W.R.Q.'.(.|.} ].H.j.V.z.* ; : r q 0 y ^ ( d 0 t u.4.4.4.u.f.h.j.T.T.C.U.V.f.i.a.z./.XXoX`.",
"*X!.{.`.~.Y.8.H.v.G L.I.t.s.R.|.}.j.l.h.Q.T.{.(.(.;.a.y.H.h.* 0 e e q * $ o * 0 r p ( t C.R.Y.Y.R.Y.R.R.R.Y.B.Y.Y.Y.T.B.R.Y.Y.Q.",
"-XY.`.`.}.Y.p.~.a.Z { 7XI. .s.`.W.f.h.V.T.V.T.k.l.R * X o o e y : . o ( ( d ; . $ q p ( e i.4.4.7.i.p.8.p.8.8.8.7.2.8.4.7.5.5.8.",
"-XY.R.R.{.Y.5.H.J.H @.3X6Xc.[ C.Y.h.j.h.7.6.  X X ; e e e t * . = y _ CXmX@.d y 0 X r p ( r # g.T.Y.Q.R.Q.R.Q.Q.Y.;.C.4.C.p.j.!.",
"=XY.B.Q.Q.C.2.a.C.` X.M.3XhX{ T.R.~.4.k.e.      . . X X X X 0 e t ] rX] mXCXrXD.y e X e p : X p.g.g.g.g.g.j.V.B.B.E T.7.T.p.f.R.",
"=XY.B.Q.Q.R.>.4.C.{. .#.3X7XI.r.^.^.b.[.. ; q : : q 0 q 0 : e r r ] mXrXCX6XrX6Xr r 0 * t ; o f.g.g.p.i.u.u.i.s.f.E C.7.(.h.5.Y.",
"-XB.g.C.Q.R.>.e.h.`. .X.2XM.BXr.C.C.{.(.. t t t r r r r r e e @.+.] gX6XCXrXgX9Xe r y X e e = Q.B.Q.Y.R.R.Q.R.Q.!.;.T.y.[.H.a.R.",
"=XB.g.Y.Q.C.>.a.f.(.Q.t.r.P.aXP.r.~.C.(.. : t e e e e e e e e 5XeX4XgXD.9XeXgXP.e r r * : t q o T.i.T.}.{.{.{.[.T.Q T.i.{.z.).R.",
"=XB.g.Y.Y.Y.u.H.J.R.R.Q.0.5Xn.mX$.(.g.z.  X ; : e e e e e e e +.eXnXhXAX$.] 0XD.e e r r $ : q * ).).J./.~.~.).].].} C.H.(.~.|.W.",
"-XB.j.Q.R.B.i.'.}.W.Y.Q.t.m.n.gX$.G 5.v.G.    X ; q e e e e e d d @.BXBXmXAXMX$.r d e e o ; q : - v.v.u.J.e.b.H.b.} C.`.W._. XU.",
"-XY.B.R.Y.R.a.(.(.R.k.Y.z.| 5XM.eXL.f j.].h.d.  . . * e e e e $.nXrX' hXAXAXAX9X+.nXe e r $ * r e - /.a._.k.Y.Q.T.E h.!.!.{.'.g.",
"=XC.C.R._.R.7.~.V.B.i.Q.l.[ P.n.aXL.a ].[.W.H.6.K.. . X . * q f ' %.nXgXAXBXP.4XnXeXe e r r ; X X   # H.{.b.R.R.V.E g.R.`.{.T.9.",
"OXC.C.R.4.Y.i.~.g.8.p.Q.T.v.| L.5X0XL.s R.R.T.~.k.e.O 4 t.= . o * y @.' +.qXrX6X+._ e e e r e e 0 0 . . `.i.Q.R.R.0.p.Q.Q.^.C.j.",
"OXC.T.R.>.Y.7.J.g.g.u.B.~.s.Y ,XM.0X3XC |.`.h.7.T.`.z.C dXm.n.n.G X * = e ' D.4X4XO.e e e e r r t r : ; # i.Y.T.C.E k.Q.R.R.j.[.",
"&Xj.B.R.4.Y.6.l.V.B.2.R.z.v.Q ..n.3X3X$.^.T.C.j.h.T.H.C vXvXvXvXqX{ G X * ; : ] 6XX.e e e e e e e e y y $   V.V.B.0.p.C.B.R.V.}.",
"%Xf.h.R.6.C.4.f.!.Q.2.`.z.s.y.H %.M.7XqXs ^.T.T.C.(.H.C vXvXvXvXcXcXhXG i i - * : q : 0 0 q e e e e e q o   j.j.g.} p.R.Y.R.B.k.",
"%Xf.9.W.a.Y.4.C. XW.k.{.z.e.s. .@.n.P.7X_ ].oX X|.}.s.C vXvXvXvXvXvXvXvXvXlX{   . . X X X ; 0 0 q q : $ . T.V.V.j.E k.R.R.R.B.:.",
"*XV.j.Q.k.B.5.T.C.Y.Q.~.H.e.2.>.H #.3XP.hXB  X%XoXH.:.C vXvXvXcXcXcXNXcXvX{ # = # #                   . R.W.g.V.p.E j.R.R.Q.V.:.",
"*XU.H.W.h.Y.5.U.(.`.(.i./.b.T.R.Y ] M.P.qXs k.9.9.Y.z.- i i i i i s i i i e #.sXtXI.c.uXK.N.N.} # Q.g.V.W.Q.f.V.u.R z.R.W.Q.j.a.",
"=XT.T.W.f.Y.7.Q.z.T.h.2.e.K._.^.j.{ @.5XP.3XH T.`.{.~.= - P.8X8XI.q.S S 0.c.uXkXiXiXfXxX#X#X#Xt.2 R.9.V.T.R.7.9.,.T T.R.W.W.g.].",
"=XR.!.!.f.R.9.(.f.C.T.i.e.K.'.^.z.R ] <XM.aX/ ~.`.`.^.& - sXNXvX8X[ / 1XwXuXdXdXiXdXvXvX#X@Xx.D }.T.h.C.R.j.~.T.T.} (.!.W.!.8.oX",
">XR.{.!.H.T.2.! R Q ;.R T R Q E E E [ #.<X8X#.[ E } Q T & sXxXxX7X^ ^ bXbXsXzXdXiXdXvXpXA.w.D Q.{.T.z.T.R.h.'.W.^.} (.T.T.R.7. X",
">XR.`.!.[.B.f.}.{.{.{.}. X[.J.k.a.2.q.[ 5Xn.qX{ /.Y.Y.z.w sXNXvXeX) / CXZXNXzXpXiXyXyXA.=.N `.Q.'.V.f.Y.Q.W.f.Y.f.R H.R.V.B.4.{.",
">XR.!.!. XY.7.W.W.W.!.W.T.U.{.'.k.a.k. .#.M.qXX./ 4.7.u.w uXzXzX0X] +.CXNXvXpXiXiX+Xw.&.7 ).^.B.{.R.R.R.W.{.(.T.a.T h.V.g.j.4.|.",
"-XY.B.C.{.R.a.{.|.}.}.(.z.f.V.{.}.{.!.R./ 6Xn.0X#.s `./.w @XdXNXvXxXvXvXvXvXvXvXkX;XA.7 3 s.C.Z.'.R.U.R.R.Q.}.T.u.T f.f.f.j.H.[.",
"-XB.g.C.H.Q.7.R.W.T.R.T.W.H.h.z.T.(.^.T.[ M.n.0X#.s l.C.h.B c.pXvXvXvXxXvXvXvXfX#XA.,.&.7 3 3 3 4 Y.j.T.j.Y.W.C.z.Q i.7.z.T.]./.",
"-XC.f.h.k.(.8.(.!.W.W.f.T.U.j.Y.R.Q.R.R.C.` <X2X3Xn.B i.9.j.C q.@XpXvXvXzXvXdXyXZ.w.&.z ;.c.N.w.D 4 j.R.p.V.Y.R._.0.i.a.H.H.!.].",
"-XR.~.k.i.^.6.k.~.l.>.4.g.B.R.Q.R.^.C.g.7.s <Xn.7XM.s i.a.i.6 x =.Z.S.S.S.S.Z.x.&.N N 0.tXdXMXdX8XA w T.5.j.Y.(.`.Q l.[.J.H.(.|.",
"%X-X%X X&X>X:X;X%X=X>X*XOX%X:X-X*X*X=X*X*Xs ..M.3XM...XX&X, l v A A A A A A A A b 9 O yXzXVXZXZXMXw.u p.u.C.R.`.`.0.[.{.a./.(.|.",
"oXl. XQ.U.8.a.z.^.^.T.{.}.Q.R.Y.B.B.j.C.B.b.a %.L.2XM.a + c K P x 5 < < 5 5 , < z J + sXvXVXZXZXNXiXA g.J.Y.R.(.`.;._.R.J.XX(.|.",
"%XH.{.W.U.T.(.Y.j.z.~.}.`.R.R.R.R.R.R.R.B.k.a @.M.3X2XC # n P I K S K K L m m L P J O jXvXvXNXZXVXzXw.M ^.C.R.^.R.Q (.R.[./.T./.",
"-X`.Q.Q.T.U.z.T.T.H.(.T.8.u.7.5.i.z.(.{.Q.g.u.s #.3XM.M.@ m I I P P K S m S L I I J O jXvXvXNXvXNXxX@XB l.h.Y.^.(.;.C.`.|.H.H.a.",
"oX7.i.H.'.W.Y.j.k.J.}.W.j.i.4.4.4.s.J.(.}.(.~.a O.M.<X6X@ m L I I I I I *.P U U I J O 9 I.iXiXpXxXvXiXA b.p.B.(.(.;.Y.Q.|.T.T.6.",
"%Xi.>.-.a.|.`.Y.Y.j.h.E.(.W.Y.R.f.i.T.}.{.`.W.~./ O.<Xn.O m P I I I I I L P L L U J < + M c.A.@XvXxXdX/ z.p.C.~.{.Q T.T.'.'.T.7.",
"f.4.4.4.2.4.6.9.8.7.7.4.>.6.7.8.a.7.6.6.4.7.5.8.^ ..<XX.+ m *.U I I U I P *.P L L K m > + z A 0.dXvXvX0.N i.B.^.`.Q 4.7.a.7.5.4.",
"T.R.{.~.i.C.R.!.`.(.(.B.V.T.W.T.T.T.(.W.`.C.C.Z.+X` O.X.+ x *.1.*.*.*.*.*.*.*.m K n b 5 , > % D iXxXzXA.V 3 C.^.`.;.Y.T.{.~.7.U.",
"R.`.E.T.l.C.R.!.!.`.{./.z.H.T.C.j.T.W.(.W.j.T.E.'.} _ ] O h U 1.1.3.3.3.1.U K m n k j j h , @ B @XvXxXtXD 3 T.E.(.Q R.Y.C.z.z.R.",
"V.!.W.|.l.V.R.Q.`.`.z.2.i.T.W. X X{.Y.W.Y.7.H.{.T.d s B O h V K *.1.1.1.U K m v k j j h h , @ N w.zXvX#XY 3 Y.T.R.} f.j.C.(.T.p.",
"`.h.:.9.W.R.!.{.{.{.R.j.T.{.T.9.V.f.4.J.< 4 z.].4 4 V 0.1 @ C ` J L K K K c z h k k h + O + > ^.Z iXzXiX[ 3 T.U.T.;.p.j.T.Y.Y.Y.",
"}.h.H.[.h.8.j.T.C.z.R.W.Q.W.`. X|.|.}.V $X&XC 2 3.F.<.M &.> p / D.9XeXeX+._ ' ' _ p a p % a.B.B.V ;XcXiXY 3 Y.j.l.;.T.R.^.T.R.|.",
"z.J.z.H.z././.).J.v.l.l.l.b.~.).K.].K.V K.fXF.F.<.V u M x.2 % a $.wXo.eX' ^ ^ ^ p % % % + d.C.D c.iXxXzX| 3 b.s.l.0.K.].K.v.s.z.",
"i.l.J.b.K.d.u.v.b.J.K.K.e.e.e.s.K.v.y.B G..XW J D Y 2 u A.5 O % _ %.o.4Xd q 3 4 2 < < O O @ E c.pXdXvXvX| - b.v.s.s.G.G.k.z.z.K.",
"j._.C.C.}.a.B.^.T.!. X|.l.>.f.W.|.k.H.c T ~ i , u.Y Z.M ^.A N 5 9 { _ | M z 7 h h j j < + @  .pXxXvXNXpX[ 3 '.j.j.T.W.W.z.W.{.l.",
"i.5.V.(.k.:.2.g.R.R.Y.'.^.T.h.U.W.W.E.~.5 2 2.E.5.Y p.M x.w.&.z 6 9 > c c n m m b h j 8 > 1 R yXvXNXNXtXY 4 E.4.j.!.W.H.(.z.|.).",
"B.}.OXJ.5.u.B.{. Xh.i.U.T.R.E.g.T.T.j.W.T.l.4.(.u.Y 8.7 F F F g > > 2 6 7 8 l c h j h > b.3 N N.zXvXdXN.} (.H.H.W.Y._.i.R.(.H.9.",
"R.R.R.R.Q.Y.Y.R.W.W.T.h.U.E.T.!.a.T.j.W.T.a.5.{.i.Y R.5.w 4 4 < < c T e.t.z @ + > h h > C.4 N w.yXdX@XD W.W.E.j.Q.W.4.R.'.k.i.C.",
"j.C.Y.T.k.f.f.9.E.(.4.7.z.h.h.V.T.f.5.^.T.2.i.`.p.T (.Q.Y.C.Y.< < % 3 4 0.I A h + + @ O Z.s.7 u M C B B.B.E.a.f.U.a.j.T.~.2.5.g.",
"T.R.T.R.j.f.i.~.z.J.y.a.H.k.i.T.T.i.5.(.T.4.a.{.~.} l.Q.Y.h.V.% M T V c u 4 4 5 < 8 8 @ H.s.u.k.~.T.^.R.W.h.h.^.W.j.T.Y.C.V.C.C.",
"f.4.u.f.C.^.Y.T.T.W.C.a.K.s.l.R.Y.p.p.~.h.4.k.{.(.} 7.T.`.h.j.% B <.P n k < 1 5 v l k < 1 z.h.>.a.).[.{.W.Y.V.f.z.`.`.R.Q.R.^.Y.",
"R.Q.R.R.Q.Y.f.H.`.z.R.k.2.e.'.W.V.a.j.~.f.6.j.R.T.T C.a.|.V.j.& M *.S n n h > 7 n v k k 4 z.R.u.-.k.|. X{.R.R.R.R.V.p.i.h.~.{.R.",
"T.R././.[.{.R.j.T.E.E.U.z.e.T.W.j.f.z.T.f.6.H.z.k.T C.j.H.B.C.& 9 m n n n h , 6 v v l k 5 1 J.Y.V.j.l.z._.}.`.C.C.R.W.R.z.z._.(.",
"R.C.h.a.k.J.'.^.h.T.!.7.s.e.j.T.T.H.T.T.i.6.(.T.u.T B.R.h.V.B.& 7 n n n n g , 5 k v n k k 2 3 p.k.z.~.~._.E.R.T.T.~.'.{.f.z.z.^.",
"W.Q.T.U.a.y.}.(.V.f._.j.u.t.T.T.(.{.T.T.9.a.R.h.u.T (.(.Y.Y.T.& 7 v n n n 6 , < g k n k j 2 % g.J.~.z.l.p.s.k.z.~._.}.`.h.h./.`.",
"Q Q ;.Q R E ;.Q Q R } E 0.K.(.9.`.`.T.R.l.J.T.k.C.R h.z.(.B.3 % 6 n n n n 5 % < k n n k j 2 & R R } } } T T T R R } 0.Q ! R } } ",
"Y.T.`./.7.G.a.H.~.z.h.p.y.I.T.2.W.R.j.C.(.%XR.{.oX} 4.p.4 4 z z x n n n n 5 , k v v k k 5 1 XXXX].K.k.i.B.C.l.C._.K.2.>.p.g.C.Y.",
"V.T.`.}.K.y.6.T.C.J.h.g.2.G.h.|.R.B.f.8.(.{.R.!.5.T C.j.3 H E T S n n n x 2 7 v v k k 5 1 C.Q.R.R.Q.R.`.^.u.R.(.a.7.a.>.2.5.8.h.",
"Q.Q.}.'.u.>.7.W.T.H.z.C.y.d.(.!.Q.R.a.a.Y.Y.f.Q.z.R ^.j.& E -.I m n n x k 2 4 z 7 6 5 - 1 V.g.B.C.Y.R.(.i.g.Y.`.(.~.h.k.B.C.Q.Q.",
"R.Q.'.T.C.T.9.T.C.j.~.Y.a.d.R.R.R.W.z.l.R.B.5.C.^.} (.V.& N V c z z z < < 7 3 - % & 1 [.).k.p.g.V.`.(.C.Y.R.R.{.(.~.T.z.B.B.Q.R.",
"R.!.(.h.'.z.a.T.z.j./.R.k.d.T.R.R.C.~.~.T.>.k.g.C.Q k.~.b.& % % % % & % & z.i.C.Q.^.(.{.C.V.R.`.{.~.C.C.`.}. X X%X X}./.f.7.C.R.",
"g.W.W.W.V.T.7.~.T.C.~.R.z.d.T.R.Y.i.R.[.C.:.C.k.p.R v.g.g.^.^.oX;XC.{.^.^.p.i.{.`.}.[.i.i.Y._.7.h.Y.`.(.h.6.2.4.4.4.u.4.>.u.R.(."
};
