/* XPM */
static char *c6cdfd93ef5f4e0897710a8ed6dd4a4d5K9Pll71erxV4TUB[] = {
/* columns rows colors chars-per-pixel */
"64 64 248 2 ",
"   c #020202",
".  c #050708",
"X  c #06090A",
"o  c #0A0C0D",
"O  c #170706",
"+  c #190605",
"@  c #1B0906",
"#  c #1C0B0B",
"$  c #0D100F",
"%  c #16120D",
"&  c #0B0F11",
"*  c #170B16",
"=  c #1B0D15",
"-  c #190B19",
";  c #0D1113",
":  c #111415",
">  c #191717",
",  c #161A1D",
"<  c #250C0A",
"1  c #2E140B",
"2  c #36180B",
"3  c #3A1D0C",
"4  c #200E15",
"5  c #241215",
"6  c #2B1513",
"7  c #23131B",
"8  c #291918",
"9  c #2D191C",
"0  c #341B12",
"q  c #371915",
"w  c #2A231C",
"e  c #3C2318",
"r  c #171D20",
"t  c #191E21",
"y  c #311B22",
"u  c #1C2325",
"i  c #1F2629",
"p  c #252728",
"a  c #23292C",
"s  c #392628",
"d  c #3C342D",
"f  c #282B32",
"g  c #3B2D34",
"h  c #2B3134",
"j  c #383638",
"k  c #451D11",
"l  c #471D16",
"z  c #44230B",
"x  c #4A260B",
"c  c #4D290D",
"v  c #51290D",
"b  c #472715",
"n  c #532C12",
"m  c #592B17",
"M  c #5D3115",
"N  c #5A3319",
"B  c #623214",
"V  c #643A1D",
"C  c #683B1C",
"Z  c #441F24",
"A  c #472A28",
"S  c #582827",
"D  c #4A302A",
"F  c #563629",
"G  c #463636",
"H  c #583B37",
"J  c #622825",
"K  c #693D21",
"L  c #713830",
"P  c #49403B",
"I  c #56423D",
"U  c #664526",
"Y  c #6D4222",
"T  c #714422",
"R  c #744A26",
"E  c #764E28",
"W  c #784C28",
"Q  c #7C5428",
"!  c #66463A",
"~  c #734838",
"^  c #744B3C",
"/  c #7B4E3C",
"(  c #6F5333",
")  c #755236",
"_  c #7D513D",
"`  c #373A43",
"'  c #4B3C43",
"]  c #513E46",
"[  c #3C4245",
"{  c #474649",
"}  c #584647",
"|  c #58534B",
" . c #4F4E53",
".. c #5A5657",
"X. c #664F4C",
"o. c #66544C",
"O. c #7C5341",
"+. c #7A5747",
"@. c #76574C",
"#. c #655A59",
"$. c #71655B",
"%. c #5D5C66",
"&. c #646265",
"*. c #686466",
"=. c #75696A",
"-. c #726F6F",
";. c #797574",
":. c #863A34",
">. c #963F37",
",. c #855C2D",
"<. c #89423B",
"1. c #95433A",
"2. c #895837",
"3. c #80543D",
"4. c #955936",
"5. c #9B5E3A",
"6. c #A05F3A",
"7. c #956733",
"8. c #906833",
"9. c #9E623B",
"0. c #A3643C",
"q. c #A8663B",
"w. c #A6693D",
"e. c #AC6B3D",
"r. c #B16E3D",
"t. c #B1713F",
"y. c #845844",
"u. c #995747",
"i. c #A45749",
"p. c #9D6744",
"a. c #916B4F",
"s. c #A46641",
"d. c #A46B43",
"f. c #A66C47",
"g. c #AB6D42",
"h. c #B16E41",
"j. c #AD7144",
"k. c #AD744A",
"l. c #AA764D",
"z. c #B37344",
"x. c #BA7644",
"c. c #B87847",
"v. c #BD7A45",
"b. c #B3754A",
"n. c #B47B4C",
"m. c #BC7D4B",
"M. c #B56A56",
"N. c #AA7755",
"B. c #B87C54",
"V. c #82736A",
"C. c #8C756A",
"Z. c #857A76",
"A. c #B47966",
"S. c #C57B47",
"D. c #C27C46",
"F. c #C37E4A",
"G. c #C57C59",
"H. c #C27E6C",
"J. c #BD814D",
"K. c #B38E4F",
"L. c #AE8C51",
"P. c #BC8353",
"I. c #BA8758",
"U. c #8B817A",
"Y. c #958679",
"T. c #B98469",
"R. c #AC8972",
"E. c #C58146",
"W. c #CA8247",
"Q. c #C4824C",
"!. c #CC844B",
"~. c #C48B4E",
"^. c #CE894E",
"/. c #D1864C",
"(. c #D18A4E",
"). c #C38551",
"_. c #CA8650",
"`. c #C48A54",
"'. c #CC8C53",
"]. c #C38D5B",
"[. c #CC8F58",
"{. c #D18D52",
"}. c #CE9156",
"|. c #CD925A",
" X c #C8935D",
".X c #D39255",
"XX c #D69757",
"oX c #D3955A",
"OX c #D4995D",
"+X c #D99C5D",
"@X c #C88F6C",
"#X c #D29660",
"$X c #D39B62",
"%X c #DA9E63",
"&X c #D89978",
"*X c #DBA469",
"=X c #D3AB6F",
"-X c #E0A669",
";X c #E4AA6B",
":X c #E8AD6E",
">X c #E7B16F",
",X c #E4AA77",
"<X c #E5B273",
"1X c #E9B272",
"2X c #E8B879",
"3X c #787B81",
"4X c #898584",
"5X c #948A86",
"6X c #9A9389",
"7X c #939596",
"8X c #A69789",
"9X c #AD978A",
"0X c #96A09C",
"qX c #A8A496",
"wX c #B6A899",
"eX c #B7B09F",
"rX c #A7A9A9",
"tX c #A3B7A5",
"yX c #B9B3A5",
"uX c #BABAB6",
"iX c #D99E82",
"pX c #D7A78B",
"aX c #CFB096",
"sX c #E5AA87",
"dX c #E8B79A",
"fX c #C2B7A6",
"gX c #DCBCA4",
"hX c #C5BFB3",
"jX c #E9BCA4",
"kX c #F2BEA0",
"lX c #F1C09F",
"zX c #C9C4B5",
"xX c #D1CCB5",
"cX c #EAC3A9",
"vX c #F3C6A7",
"bX c #E6C3B7",
"nX c #F5CEB3",
"mX c #F7D2B7",
"MX c #F6D4BB",
"NX c #F9D5BB",
"BX c #C8C9C7",
"VX c #D7D8CD",
"CX c #F5DCCB",
"ZX c #DFE0CD",
"AX c #E7E8D6",
"SX c #F9E2D3",
"DX c #ECEDE5",
"FX c #F7ECE4",
/* pixels */
"*X<X1X*X*X;Xj.Q.F.E.b./.F.l.F.!.D.j.D.'.Q.P.).z.9.~ e.!.F.v./.P.1X;X;X;X;X;X1X1X;X*X*X;X-X;X-X-X-X%X%X-X:X2X<X<X<X,X2X2X>X;X-X:X",
"*XXX'.oXoXv.9.z.F.!.0./.m.l.Q.!.x.~.v.v.~.OXb.z.d.~ Q.].Q.^.'.).1X'.!.{.(.^.'.).j.4.g.E.!.!.!./.!.!.!.!.!.}.v.t.c.x.x.Q.{.W.W.E.",
"*X.XQ.[.{.J.0.x.!.!.6.!.m.I.!.!.e.`.w.z.[.'.$ $ $ & o o : ).].m.1X!.m.m.J.Q.Q.z.g.e.S.!.!.!.!.W.!.!.S.S.W.^.!./.^.^.!.!.!.D.D.D.",
"*X.Xm.Q.z.OXz.'.{./.s./.m.I.^.F.J.J.n.`.X o f f h a , , : o & _.;XS.v.D.v.E.!.^.Q.!.{..XXX.XXX.X.XXXOX.X~.J.c.z.j.z.t.Q.|.OXXX^.",
"%X{.'.Q.e..Xr.Q.Q.!.x.!.m.b.!.).|.J.|.> u , ` [ j a r t i , : ; 2X+XXXXXOXOX'.'.).w.0.s.0.0.0.d.b.x.m.J.Q.S.@.C.g.g.j.n.`.oX#X.X",
"-X(..X{.).W.r.J.m./.W..Xm.B.!.OXXXn.> a [ i u r ; & ; : u t t r ; `.'.`.[.[.m.z.S.!.{.^.!.!.F.!.!.!.!.!.W.#.Z.qX] F.!.W.!.!.!.!.",
"1X!.(.{.XXW.h.).j.S.!..XP.l.z.oXJ.% a [ i u X X r h [ ` . . r a r ; o $ o 2.5.5.5.j.j.z.b.z.e.0.e.g.h.e.} 5XyX=.G 5.e.q.e.q.q.r.",
":X!.!.!..X!.q.J.Q.'.!.|.m.f.s.Q.: h [ a u . i a h ;.ZXBXh f ; . : i u r u ; X .   L.|.oX}.B.z.z.S.!.!.' wXhXU.4XG ^ S.0.F.z.x.(.",
";XW.S./.!.!.0.f.Q.oX{..Xm.N.f.E.% u a t o u a 6XBXAXBX*.BX` i i , . . . X .         P.|.|.n.e.h.x.x.h.G qXeXZ.;.} ^ Q.0.!.z.z.!.",
";XW.S.!./.!.5.p.m.}.{.XXm.I.J.!.% r u $ t i i uXrXtXDXuXAX[ i i r r t r r u r r , ;   }.).B.b.z.x.x.H 9XqX6XZ.X.b./ F.e.'.b.q.!.",
":XW.x.!./.S.5.0.x.}..XXX).P.|.^.w i r X a u u yXuXBXZX0XZX[ -. .u u i i i i i i u u   !.!.S.S./.!.F.] hXqXZ.=.I !.3.Q.d.|.J.z.!.",
";XS.r.!./.!.9.f.z.'.{.(.m.P.^.> u u , , a u u qXBXrX0X4XxX4XBX-.i u u u u u u u u ,   W.S.v.v.m.Q.g.C.wX6X;.$.[.P._ Q.e.|.m.`.!.",
";XS.x.!.!.S.0.J.J.^.!./.m.B.z.8 u : $ i u u u tX4X .4XDXzXBXtX| u u u u u u u , : X   N.k.n.I.].T.} pX6X5X*.]  X].O.Q.J.'.).OX^.",
":XS.x./.!.S.j.}.oX^.W./.m.m.w t u ; $ i u j p Y.AXDXZXAXDX .h i u u u u u u ; .     L.I.I.P.B.k.f. .xXY.;.#.H B.B.O.F..X^.'.+XQ.",
":XW.D./.!.!.j.'.^.^.t.!.J.> i u $ : i u j DX[ tXFXDXDXxXj VXhXo.u u u u & X     d.p.b.].oX{./._.o.xXY.6X%.H F.^.Q./ x.^.^..X}.x.",
";XQ.F.W..X!.e.).v.D.j.(.% . X X , u i i h zXVX;.qXDXDXxXBX&.{ h r & X X   p.P.P.}.}.}.!.m.z._.oX..ZXZ.U...I !.!.D./ x.!.(..X!.r.",
"%XF.F.!.0.!.g.).x.r.g.  o , t t i u u u a | &.0XzXqX....&.u $ $ X w a.a.9 Q.Q.z.c.P.oXOXoX{.!.$.qXR.6X%.o.j.!.!.!.y.h./._./.S.m.",
"$XF.F./.5.W.e.J.x.b.> > t p i i u u u u a -.5X7X;.{ r : $ X o.V.V.R.kX,XA '.W.S.E.F.~.J.0.9.].&.fXV.4X| ^.z.!.Q.Q./ b.!.!.!.v.|.",
"*Xm.m.!.0.Q.w.m.c.  : a a u u u u u u u h ;.0X{ , : ; % | o.fXNXCXmXnX,XA j.q.r.z.z.Q.'.v.j.$.U.8XZ.*.o.!.x.E.S.D.3.h./.S.!.v..X",
";Xz.c.!.w.!.5.z.!.  & r u u u u u u , r , , , & w d G | NXNXNXNXmXNXnXsXA z.e.`.'.b.z.P.P.g Z.yXZ.7XG !./.D.D.x.x.O.b.S.W.!.S.z.",
"*Xz.x.^.j.!.0.v.oX  . ; , u t t u ; X o X % > 5 Y.NXNXNXNXNXNXNXNXmXnXsXA Q.Q.F.z.v.[.'.].' Z.9X;.;.} !.!.!.x.D.x._ z.!.!.!.S.5.",
"-Xv.x.^.z.W.e.Q.F.).                    % T.cXnXmXNXNXNXNXNXNXNXCXmXNXNXG $X+XoX.X'.^.!.g 8XwXZ.Z.G F.S.!.!.S.D.z./ x.!.!./.D.4.",
";XE.v.^.b.W.0.E.^.'.'.d.].B.!.7 _ B.I.A.aX#XpXvXNXNXNXCXFXFXCXMX9Xd A d > 9.z.e.q.0.e.l.g Z.8XZ.;.G S.v./.!.z.x.s.^ J.!.^./.x.j.",
";X!.!.(.z.W.e./.J.Q.x.5.f.P.{.8 a.&X&X&XmXlXsXsXvXnXsX@X#.&.o.o.V.9X9XN.s b.m.v.F.Q.F.g Z.Y.5XZ.} !.h.S.!.!.e.x.6.~ Q.!.^.^.z.|.",
":X!.'.(.z.!.j.}.z.Q.!.f.p.I.'.Q.H N.@XiXNXNXvXsXkXvX@X! a p p u $.mXbX+.s f.k.f.k.).].g 8XY.Z.=.H Q.x.F.!.v.).Q.).O.'.^.!.'.r.$X",
">X!.{.(.m.!.9._ ~ ) 3.^ ~ ) / 3.3.L u.H.dXCXvXsXkXvXR.p d p d p $.mXgX9 ~ / ^ ~ ^ ^ O.*.Y.5X;.| }.~.m.Q./.c.'.(.).O.'.!.!.!.q.OX",
"<X!.{.(.oXD.z.oXXX.X.XXXOX|.I.b.d.s.S <.B.pX&XsXpX9XV.8 h u y G R.NXgXw m.x.q.!.m.Q.G wXY.4X*.G }.D.t.W.!.}.z.!.z.~ ).!.D.S.0.XX",
"1X!.(.(.OXE.e.^.^.^./.^.W.E.{.}.n.k.n.q :.:.A.@X+.d d j P G ' 9XNXNXaXy [.'.q.x.).J.} 9XY.Z.#.! }.!.!.!./..X`.W.r.~ b.D.x.D.0.XX",
"1X!.S.!.oX!.t.}.oXoXXX[.m.z.F..XoX'.F.5 7 = = > Y.mXmXmXNXNXmXmXCXjX@X9 z.x.0.F.F.} fXC.6X#.d /.XX!.E.!.!./.XXQ.g.^ h.z.b.m.J.|.",
">XS.z.S.J.!.e.!.!.!.!.W.^.m.x.m.+ O * q :.:.M.].dXmXCXmXNXmXnXCXdXN.A b.b.z.0.{.h.} fXV.4X .! !..X!.v.Q.v.!.^.m.m._ g.e.v.J.}.`.",
":XQ.z.x.j.!.z.}.(.^.^.z.F.Q.t.9 J u.A.a.l >.i.H.,XkXmXmXNXNXkXH.y.A 7 d.p.5.0.'.X.6XZ.5X#.] '.^.XXE.v.^.h.D.!.!.[.y.d.j.J.J.'.|.",
"1X!.).b.j.'.q.b.I.n.5.0.x.J.9 J A.gXCXaXy.S l 1.M.A.H.H.H.H.G.i.L q # f.w.0.q.S.#.wXC.5X] k.}.!.{.D.z.Q.q.D.S.'.{./ m.|.P.J.}.|.",
"*X<X;X$X*X2X<X;X;X;X1X-X%X$Xy u.bXFXFXSXpX@ + b J J J J J J S T L n 1 -X*X2Xn.X.=.8XZ.#.X.f.[.!.^.Q.h.z.d.F.!.'.{.3.[..Xj.I..XOX",
"$Xc..X(.E.h.g.m.).Q.`..XoX/.A @XSXFXFXSXgX@ 1 0 q 2 2 3 2 0 0 n T K c < ).}.G &.7XV.7X' b.M._./.!.Q.x.b.P.!.!.'.{.3.[.!.P.#X}.|.",
"*XJ.{.^.D.!.'.!.v.x.`.oX{.A 1.dXSXFXSXNXcX@ U R T K C C Y Y Y R W W V + [._.G -.qXZ.V.] c.b.c.!.^.Q.m.c.`.S.!.'.(./ './.oX`.!.I.",
">X(./.!.Q.Q.m.Q.Q.~.^.F.h.y H.vXNXNXNXNXgX@ U E Q T T Y Y Y R E W W V O ).H =.4XZ.5Xg F.c.B.h._.'.E.v.j.n.x.!.Q._.y.F.{.OXJ.E.j.",
"$Xe.g.m.}.'.!.m.b.P..X'.S :.&XvXNXNXvX@Xe O U E W E E W E E E E E R V @ F.G ;.6XZ.;.G F.n.n.Q.Q.d.{.Q.b.m.z.!.).'.3.Q.^.oXP.W.q.",
"*Xj.5.4.j.OX(.W.!.x.x.Q.Z i.dXmXNXvXA.A @ 3 U Q R R E E E E E E E R V O s =.U.5XZ.{ B./.m.m.!.x.9.v.x.x.m.z.W.).{._ Q.W.}.'.!.e.",
"z.9.0.9.9.0.e.e.r.e.e.0.Z A.nXNXdXR.D < 3 V T T Y Q ,.E Q Q Q Q Q ,.J O y 4X4XZ.=.G '.S.P.n.!.v.5.g.Q.F.m.r.S.).{.3.q.e.j.e.w.9.",
"!.^..X).g.S.!.(..X'.'.F.F &XmXNXsXO.# < c V V C T Q 2.,.,.,.Q 8.8.,.m * g Z.5X=...P.Q.j.P.k.!.S.9.g.).S.~.D.!.Q.{.3.Q.W..X`.e.Q.",
"!..X~.Q.m.S.!.^.{.{..X`.H dXnXvX@XO.< < z x x M Y T Q 8.7.7.7.7.8.Q z @ G $.*.| G  Xg.B.J.f.W.Q.0.j.J.v.'.W.!.~.'._ F.!.F.).m.S.",
"v.!.^.|.n.D.!.(.{.{.c.s.] nXCXsXi..X!.< z z z z N C Y Q 7.7.8.Q R N 3 # _ ! G G g  Xk.[.J.t.W.Q.q.z.z.v..XS.S.Q.!.O.x.v.S.'.Q.z.",
".Xc.4.z.!.!.^..XoX.XF.c.H MXMX&XH h.q.+ O O + 3 b b n K R T T Y I ` # 8 5 3.l.) 6 e N.#Xb w e Q.5.e.r.Q.oXx.W.Q.F./ h.x.!.Q.W.!.",
"oXc.Q.|.n.r.v.Q.F.S._.J M.nXMX&XF $XoX4 f f f { { {  .%.tXtXtX;.{ s < :.>.D 2.K.K.L.6 9 fXaX+.q 5.h.f.!.!.S.^.v.m.O.Q.^.!.!.Q.XX",
"m.P.J.J.m.).].].I.N.9 H @XNXNXsXH ].].+ 4 = = f ` ` `  .tX%.7X-.f = < >.G.S s F F ( L.l.=X=X) 6 5.g.j.m.J.n.m.k.n.y.].I.P.n.k.P.",
"f.n.P.n.P.N.d.m.m.I.7 @.kXNXNXvXT.! 4 + # 2 2 6 7 4 - g 7X%.3X .= + 1 >.H.S q P.'.~.( U L.L.( 6 0.g.z.J.k.P.P.n.l.j.J.P.l.m.m.I.",
"D.'.Q.F.XXf.m.!.S.(.4 @.jXCXNXNXdX+.7 n.+ 1 z 1 < < < 6 ' ' ] A 1 6 J >.H.L 4.w.^.|.e 8 ( ( F 5.b.n.m.b.D.!.|.v.v.Q.!.'.m.^..Xn.",
"g.q.D.'.b.4.0.x.!.!.5 H iXSXCXNXiX^ 7 Q.+ + z k 2 2 3 k 3 8 1 3 3 q >.>.M.S 9.5.Q.+Xw.f.0 8 q.4.P.).Q.z.!.W.}.w.v.^.^.J.'.v.OX].",
"D.oX%X).q.s.S..XOXb.e.! T.vXNXnXA.S 7 `.+ + 3 z c M V N N N 1 O # l :.L L F 9.7.F.'.b.g.B.b.6.2.j.|.).z.!.{.J.E.^.W.'.h.!.'.m.z.",
"!.!.!.!.!.!.!./.^.^.Q.x.F T.jXpXi.S 6 '.+ O + 3 N N 3 O < < < = - S.y 9 9 #Xw.J._.z.`.j.Q.b.5.4.k.P.).!.'.Q.`.v.!.'.0.Q.}.b.g.D.",
"D.E.S.Q.x.z.t.z.^.`.0.r.D.A s s q y w.'.@ + O @ @ # @ < m K 3.D - F.[.[.g.OXt.oX.X9.#Xn.P.b.5.4.j.b.F.x.E.'.j.x.E.z.v.Q.).6.q.x.",
"Q.Q.!._.v.j.g.).J.P.d.j.m.b.g.E.Q.e.0.'.m.# 3 4 q n v m B C W _ H - [.m.m.+Xt.+X(.z..X`.P.k.e.z.`.Q.'.!.Q.v.c.).^.v.!.Q.Q.x.F.!.",
"z.0.0.b.F.'.!.E.).^.Q.j.I.f.B.!.!.h.g.).> 0 z 6 b B B B B B C W F = !.).*X+Xt.XX^.}.^.OXm.n.c.u.k.`.}..X^.Q.D.z.m.{.(./.!./.!.Q.",
"!.!./.!./.!.z.J.{.m.!.z.9.p.[.^.S.z.m.Q.< x x 3 q b B B B B B C D * S.oX+X+Xe.{.^.+XQ.oXz.B.!.s.2.n.OX+X.X!.!.!.!.v.z.f.b.`..X!.",
"!._.`.`.|..X!.m.~.Q.`.E.n.p.~.!.x.z.m.5 6 x x x 0 q M B B B B C b - !..X+X].r.(./.{.^.m.k.p.P.S.D.m.m.m.'.OX{.E.S.!.^.!.v.m.'..X",
"Q.F.b.h.j.Q.[.!.b.Q.^.e.k.p.x.!.Q.J.Q.6 c c x x 2 6 x M B B B B b 8 S.(.+Xz.r./.!.(.!.g.b.k.h.h.z.m.J.).[.^.Q.Q.J.)..X'.x.m.m.`.",
"/.!.!.Q.z.g.oX'.D.z.}.v.d.l.m.Q.^.}.Q.6 M x x x x 0 6 c B B B n x q > 5 9 f.r.S.W./.!.j.P.b.D.m.J.J.Q.n.j.k.z.m.).}..X'.x.n.'.'.",
"_ _ _ _ ^ ) O._ 3.^ _ / y.I.'.j.}..Xe M B B c x x 0 6 c B v v c x v m m 7 s.0.3./ / / ^ O.^ ^ ^ O.O.O.O.~ ~ ~ ~ ^ O.y.y._ ^ O.3.",
"Q.S.'.`.d.P.j.J.F.B.b.z.p.I.J.9.^.5 6 n B B M v x z q q B M M V K R y.2.9 q.6.4.p.c.Q.F.).[.$X#X].I.b.f.F.Q.n.F.}.P.9.5.e.m.S.!.",
"D.!.^.OX`.9.0.^.).F.c.x.p.P.m.oXW.= 5 0 v B B v x x 3 4 v B C V N V K Y 7 0.e.!.!.{.h..X'.!.!.!.!.!./._._.e./.'.j.j.d.9.6.q.r.b.",
"!.^..X[.d.5.e.).Q.m.m.S.d.l..X'./.Q.= = 0 e q q 1 0 6 = 0 K V n x x z 0 7 n.e.Q._.F.D.'.Q.F.x.S.S.!.!.'.g.z.!.(.'.).x.z.S.!.!./.",
"/.(..XQ.F.Q.t.!.F.m.).!.d.k.!.!.!.^.B.= - - = - = - - - 4 A e 3 3 3 0 - Q.$Xq.v.(.Q.x.|.|.z.h.x.D.'.'.S.!.!.!..X'.).).m.D.S./.!.",
"!.(.`.z.'.m.e.).m.v.`.!.b.l.S.!.!.S.).).Q.5.b.v.P._ k.P.7 - - - - * = Q.!.!.e.W./.!.{.oXm.D.!.{.oX).D.Q.(.XXOX+X*X+X$X`.b.e.S.!.",
"x./.^.{.D.Q.g.~.Q.S.).!.m.l.Q.^.!.g.!.oXS.2.F.z.e.^ P.x.c._._.$X;X).{.(.^.r.e..X{.XX[.g.e.!.}.w.x.!.^.'.c.w.0.0.0.0.0.6.5.e.!.`."
};
