/* XPM */
static char *ddf085b9403d417ca19bb5b3741f3edaDRE2cDSDBa7UdmXG[] = {
/* columns rows colors chars-per-pixel */
"64 64 226 2 ",
"   c #180C07",
".  c #1E130B",
"X  c #1C1113",
"o  c #1D131D",
"O  c #331C0E",
"+  c #231215",
"@  c #21131B",
"#  c #2E1A19",
"$  c #351D19",
"%  c #2E2311",
"&  c #382419",
"*  c #1D1421",
"=  c #201623",
"-  c #241A25",
";  c #281B27",
":  c #251D2A",
">  c #2A1F2B",
",  c #2C2128",
"<  c #2C212B",
"1  c #3C2522",
"2  c #32262E",
"3  c #382828",
"4  c #2D2433",
"5  c #332A34",
"6  c #362A34",
"7  c #352D3B",
"8  c #3B323A",
"9  c #421E06",
"0  c #472619",
"q  c #5A321B",
"w  c #482D27",
"e  c #4B342C",
"r  c #553426",
"t  c #59392A",
"y  c #463638",
"u  c #663F2C",
"i  c #723D29",
"p  c #623F30",
"a  c #53443D",
"s  c #6E432C",
"d  c #73492F",
"f  c #674737",
"g  c #724B33",
"h  c #794E39",
"j  c #765139",
"k  c #7E533D",
"l  c #352F41",
"z  c #3D3645",
"x  c #463B45",
"c  c #433F50",
"v  c #4D4348",
"b  c #514548",
"n  c #5D5045",
"m  c #484355",
"M  c #4D4A5C",
"N  c #534A52",
"B  c #5B4C53",
"V  c #524B5B",
"C  c #5B535C",
"Z  c #6C4B40",
"A  c #795441",
"S  c #675859",
"D  c #716056",
"F  c #73645A",
"G  c #565264",
"H  c #5B5464",
"J  c #5F5A66",
"K  c #645B68",
"L  c #6B6366",
"P  c #65616C",
"I  c #756969",
"U  c #7E7B6D",
"Y  c #6A6475",
"T  c #6B6776",
"R  c #736B74",
"E  c #736B7C",
"W  c #787479",
"Q  c #83553E",
"!  c #85583D",
"~  c #8B583A",
"^  c #975B3A",
"/  c #935D3C",
"(  c #97623C",
")  c #9D613B",
"_  c #A3643D",
"`  c #AB673C",
"'  c #A5693E",
"]  c #AB6B3E",
"[  c #B16E3E",
"{  c #AF723E",
"}  c #B2713F",
"|  c #825641",
" . c #855942",
".. c #8D5F42",
"X. c #945F40",
"o. c #8E6447",
"O. c #966242",
"+. c #9C6543",
"@. c #9D6A45",
"#. c #9B6B4A",
"$. c #A46741",
"%. c #A46A43",
"&. c #AB6D43",
"*. c #A46E49",
"=. c #A86D49",
"-. c #B16F42",
";. c #A77144",
":. c #AD7144",
">. c #A6714A",
",. c #AD754B",
"<. c #AE794C",
"1. c #B47444",
"2. c #BA7645",
"3. c #B67846",
"4. c #BC7A46",
"5. c #B3764A",
"6. c #B97649",
"7. c #B57A4C",
"8. c #BC7C4A",
"9. c #A97851",
"0. c #B47C51",
"q. c #BA7F51",
"w. c #86787B",
"e. c #927E7E",
"r. c #C27D46",
"t. c #C27E49",
"y. c #BE814D",
"u. c #B78355",
"i. c #BC8252",
"p. c #89827C",
"a. c #93867C",
"s. c #C58047",
"d. c #C4824C",
"f. c #C88449",
"g. c #CB844B",
"h. c #CD894E",
"j. c #D0874C",
"k. c #D08A4E",
"l. c #C48551",
"z. c #C98651",
"x. c #C58A54",
"c. c #CC8B53",
"v. c #C48C59",
"b. c #CB8E59",
"n. c #D18D52",
"m. c #CE9156",
"M. c #C69058",
"N. c #CD925B",
"B. c #D29156",
"V. c #D3945A",
"C. c #D49A5D",
"Z. c #D99A5D",
"A. c #C99568",
"S. c #D29663",
"D. c #D49D64",
"F. c #DA9D62",
"G. c #D09B71",
"H. c #DCA266",
"J. c #DDA469",
"K. c #DCA86C",
"L. c #DAAA73",
"P. c #E1A767",
"I. c #E2A769",
"U. c #E3AB6B",
"Y. c #E4AE70",
"T. c #E4B172",
"R. c #7E7783",
"E. c #857982",
"W. c #888389",
"Q. c #998A87",
"!. c #9A938A",
"~. c #8F8D97",
"^. c #9A8D93",
"/. c #9A9595",
"(. c #A68E8C",
"). c #A5978A",
"_. c #AA9796",
"`. c #A69B93",
"'. c #B19997",
"]. c #B29A99",
"[. c #B0A28F",
"{. c #ACA39A",
"}. c #B4A697",
"|. c #B5A39A",
" X c #BBAB9A",
".X c #BEB39D",
"XX c #A9A5A9",
"oX c #B6A9A5",
"OX c #B9B6A5",
"+X c #B6ACB0",
"@X c #BBB6B6",
"#X c #D9AA87",
"$X c #C1AE9F",
"%X c #C4B59E",
"&X c #DAB59A",
"*X c #C3B4A2",
"=X c #C6B9A2",
"-X c #C9BDA4",
";X c #C1B9AE",
":X c #C9BDAA",
">X c #D2C19C",
",X c #C8C1A8",
"<X c #CCC3AB",
"1X c #C7C5B5",
"2X c #D5CAB7",
"3X c #DAD5BA",
"4X c #DAD6BB",
"5X c #E4D1B7",
"6X c #C9C6CD",
"7X c #D3CBC9",
"8X c #DCDBC1",
"9X c #D9D8DC",
"0X c #E2DEC2",
"qX c #ECD9C7",
"wX c #E5E5C7",
"eX c #E6E5C9",
"rX c #E8E6CA",
"tX c #E9E7D7",
"yX c #EBECD5",
"uX c #F3E7D9",
"iX c #DEDAE1",
"pX c #E8E6E5",
"aX c #F4EFE9",
"sX c #F7F3EC",
"dX c #F6F4F1",
"fX c #FFFEFE",
/* pixels */
"K.T.U.K.K.H.<.4.t.4.r.t.t.9.r.g.4.8.t.l.d.i.y.1.( ~ $.t.t.4.l.V.H.U.I.I.I.U.U.Y.K.H.H.J.H.H.H.H.H.F.Z.P.Y.T.T.L.K.Y.T.T.U.U.I.U.",
"H.V.B.V.m.d.' 1.f.4.4.r.t.0.d.t.t.4.8.8.d.N.} :.@.X.5.g.g.x.g.C.D.F.n.c.z.c.x.d.6.%.3.f.h.h.h.h.k.k.h.g.c.c.c.y.d.d.t.c.h.g.g.d.",
"H.B.c.x.x.y.] 4.g.2.2.2.l.0.g.t.8.8.6.8.x.n.1.3.=.*.5.t.d.d.l.C.C.V.t.z.d.d.d.8.1.-.t.g.h.k.j.j.k.g.g.g.g.g.f.t.r.t.t.f.g.g.f.f.",
"D.B.c.d.d.d.:.d.h.r.4.r.t.u.h.g.y.y.7.t.h.g.1.y.<.>.7.q.8.s.h.B.C.V.t.t.d.d.f.f.4.2.t.d.g.l.g.l.g.c.c.l.d.d.f.r.8.6.4.d.c.c.c.g.",
"H.m.h.l.d.g.1.d.f.t.t.d.q.q.z.z.l.l.y.l.g.g.z.c.u.,.7.y.4.t.f.B.Z.F.n.c.c.c.x.g.d.4.4.8.8.6.4.8.d.d.z.g.g.d.r.r.2.1.5.t.b.b.B.n.",
"H.n.n.c.l.d.{ y.y.f.g.g.l.0.d.n.c.l.8.t.g.g.n.c.0.*.*.1.s.' ' 7.i.i.6.4.7.<.*.1.t.4.d.8.r.4.r.4.t.t.r.r.r.t.r.r.r.2.r.r.f.g.f.g.",
"U.k.k.h.n.f.{ d.:.d.n.c.l.9.6.n.g.6.2.r.t.r.g.d.,.+.( _ '     X o - - - - - - f ) %.3.3.1.1.:.] ] -.1.[ 1.} [ [ ] _ ` [ ] ] [ [ ",
"U.h.g.h.h.f.] y.l.c.c.c.l.*.$.r.r.r.6.2.-.-.g.g.6.%./ .   % `..X%X%X%X%X=X'._.S o + M.N.b.i.7.1.r.f.j.f.g.j.j.j.g.~ 2.1.1.1.4.j.",
"P.j.r.j.j.r._ &.g.B.c.c.l.0.;.t.g.8.1.5.;._ j.n.y.h . % %X%XwXwXwXwXwXwX>X2X-X%X.X].o N.x.i.:.-.2.4.2.1.1.2.2.r.r.Q 1.4.3.1.1.f.",
"P.j.r.r.j.r._ _ d.m.m.B.l.u.x.g.g.l.x.c.b.) g.j.d e |.%XrXwXwX2X&XA.A.A.L.5XwX0X0X*X_.+ >.8.4.8.r.r.2.1.1.1.2.6.r.Q 1.8.y.4.1.r.",
"P.f.r.r.f.r._ %.8.n.B.B.l.u.c.d.f.d.g.c.N.^ j.c.g a =X4XwXuXuXqX5X#XS.V.S.&X5XwXeX4X$X* =.t.4.t.r.2.t.z.z.z.z.g.d.! 1.8.y.y.8.g.",
"I.r.r.r.j.r._ &.8.c.n.n.z.q.c.d.d.g.x.x.V._ z.1.f a ,XwXyXsXaXpXqX>XG.b.b.&X4XwXeXrX*X8 ..5.q.t.d.8.z.m.c.n.c.c.l.! 6.8.l.l.d.g.",
"P.f.r.r.f.r.` 7.t.g.j.z.t.q.4.4.f.f.8.y.M.) d.& % F ,XwXfXfXfXfXdXuX#Xq.6.&X0XeXwXrX%X'.2 g q.v.i.u.l.v.v.b.b.A.v. .4.d.l.x.m.h.",
"I.g.r.r.f.t.&.b.V.z.g.g.d.7.8.8.l.8.5.6.u.<.,.% D ,XwXrXfXfXfXfXfXsX5Xq.A.2XeXwXwXwX%X'.2 g q.7.9.0.0.9.<.<.5.q.i.k 8.h.h.m.C.g.",
"U.g.r.j.g.f.1.c.z.t.t.r.z.7.m.l.d.4.4.7.x.s.y.% F <XwXrXfXfXfXfXfXfXuX#XqXqXwXwXwXeX%X'.2 h j.r.1.<.l.6.i.d.r.g.f.Q 2.g.n.c.h.4.",
"I.g.r.f.g.t.&.z.r.4.6.r.8.7.B.x.8.4.y.d.m.g.y.& F <XwXrXtXfXfXfXfXfXfXaX9XqXwXwX0X-X%X'.2 h f.j.r.1.8.l.d.d.f.f.r.Q 1.g.c.h.g.1.",
"F.d.t.t.6.r.&.z.2.-.2.r.t.0.z.z.6.8.z.z.m.g.t.& S ;XqXwXwXyXyXyXyXyXyXyXwXwXwXwX0X%X%X'.2 g g.h.f.r.r.c.t.t.t.j.t...-.t.t.j.t.t.",
"D.t.t.r.2.4.&.8.4.[ 2.6.l.0.t.t.5.8.d.d.c.h.2.w S $XwXwXwXwXwXwXwXwX<XwXwXwXwX4X<X%X%XE.2 d 8.d.f.f.r.h.t.t.t.t.t.| r.t.t.t.t.B.",
"J.8.t.8.2.2._ 4.t.2.2.4.t.9.6.t.6.7.d.l.n.x.t.1 S OXwXwXwXwXwXwXwX2X%X2XwXwX4X,X%X%X XE > g 8.d.d.g.t.g.t.t.r.r.t.| -.r.t.r.t.n.",
"J.7.4.r.2.4._ 8.h.2.8.8.l.9.1.t.t.8.4.8.g.d.z.& B |.wXrXrXwX0XwX4X X%X%X0X0X<X%X%X$X'.T < d 8.t.l.n.t.f.t.t.r.6.r.| -.r.t.t.t.t.",
"H.4.4.4.4.} ` s.V.s.f.d.d.@.7.N.c.t.1.<.y.N.C.1 7 R ,XwXwXwX.X%X{.E ].%X%X%X%X%X$X'.].V - g 8.t.2.c.r.t.j.t.r.r.2.Q r.t.j.t.r.` ",
"H.t.r.t.t.r.] f.d.g.f.l.i.*.) _ 4.t.4.3.x.C.F.1 o 4 P =XrXwXfXfXiXE E ].%X%X%X X'.].E o 9.v.z.t.2.f.r.r.j.j.r.r.-.Q 2.t.j.t.r.) ",
"H.f.f.d.r.r.] f.g.x.8.6.7.u.h.d.t.d.g.g.d.2.} y.f v %X Xo X o !.1XfXo E E E ;X:X(.E M * 9.u.c.g.g.t.r.r.t.t.r.r._ Q 6.j.k.t.r.6.",
"K.g.g.f.r.r.] h.8.f.1.&.*.u.c.x.8.2.2.2.1.} 4.f.j C tX.X1Xm o 5 L fXo G E @X<X`.E G : #.0.i.g.j.n.f.r.r.j.t.r.r.$.Q t.j.j.t.6.b.",
"U.h.h.g.d.r.] 6.=.5.%.@.O.9.7.7.,.%.%.%.%.%.=.5.f z /.=XwXP l N W.fXW./.{.OX/.W G 7 f ,.9.i.g.c.n.g.2.t.t.d.t.t.6.| t.g.g.r.2.V.",
"U.n.c.c.d.t.&.,.@.*.%.%.O.@.#.@.( X.X.X.O.O.@.>.f : x a.4XW.W.+X7XfXdX;X4XR.H M x w >.*.9.q.g.j.c.f.4.f.s.d.d.d.t.| d.g.g.t.1.V.",
"Y.k.k.n.c.f.} y.y.i.i.q.i.u.<.>.+.O.O.+.>.,.u.q.A y H b %X.XaXsXaXaXOXK Q.G 8 < $ / +.5.9.i.x.k.c.f.2.g.g.d.f.g.6.Q 6.d.s.2.} B.",
"U.n.j.n.n.f.} h.c.k.c.g.h.g.c.z.7.5.7.y.i.x.8.8.1.~ v 4X=X}.-X X X%X@ o - = U S - : * 5.,.7.g.c.c.g.f.g.h.n.x.g.-.h 1.r.r.1.:.B.",
"T.k.r.z.n.g.1.N.V.C.m.c.y.1.t.k.V.n.c.z.6.-.1.r.g.c.:.> rXo fXN y *Xo o E E 7 L -XrX= * o.7.d.h.B.j.s.g.j.j.n.z.-.h &.1.2.8.8.N.",
"U.f.4.4.t.f.1.g.g.g.f.d.l.d.4.t.f.g.g.z.d.4.2.5.f o 8  X* M o !._.m E R.= o 7 H E E ].E < d y.h.B.g.t.t.r.r.j.t.t.| _ 1.4.d.c.v.",
"U.l.8.5.6.d.[ d.g.d.3.1.4.8.s.g.g.j.r.t.6.&.` $.f v 2XdXM rXM ;XtXfXfXeXrX:X].oX*X].R OX5 g y.B.n.s.4.r.2.2.r.z.b. .;.7.y.x.c.M.",
"U.V.b.x.x.N.l.b.N.c.x.l.l.c.V.V.V.B.n.n.l.t.q.q.Z 4 W rX`.dX1Xp.E R.2X,XW E.B y x E.^.|.5 g d.h.k.s.2.} 2.2.f.z.n. .7.l.y.i.m.S.",
"K.S.C.b.b.V.v.m.S.b.v.c.c.n.Z.Z.V.V.m.c.b.l.x.c.j 4 I 1X2XfX4X~.W R {./.L E z * > Y ].^.4 g l.g.h.t.1.1.1.2.f.z.n...i.z.i.i.m.C.",
"D.b.V.V.c.l.i.x.N.V.C.C.Z.B.B.B.n.n.z.c.c.b.m.c.f v {.G fXfX.XsXdXtXM M _.R.m 4 : M ].E > g u.g.g.f.1.1.4.t.f.c.n.~ l.g.x.v.m.N.",
"D.x.c.j.f.f.h.d.4.8.c.c.B.g.g.g.t.t.g.g.d.1.5.d.Z < J wXwXM eXW M M fXwX*XB K c - z E eXP 7 r f.g.d.8.7.y.d.g.z.c. .z.c.m.x.l.x.",
"U.B.j.g.g.t.8.d.l.d.d.d.1.] ` ] 2.t.c.B.z.1.1.z.j b [.G wXE *X4XyXfXfXM V ^.E.H l * M %XJ 7 r d.g.f.4.1.5.4.t.d.g.~ 4.c.x.x.y.;.",
"C.:.&.2.z.c.g.8.8.z.c.c.t.1.$.` &.5.t.b.V.m.g.g.j > J 8X-X%XeXW G G G 8X$X].K G J * _.R.(.B r 6.:.c.t.8.5.4.t.d.c.! 4.h.h.g.d.] ",
"N.:._ _ ;.l.f.t.4.2.8.8.f.4.4.2.-.2.q.t.h.d.t.t < 7 Y W %XW :X<X6XiXiXT P K E.S , o 4XG ].D r 2.' 3.4.4.8.2.r.l.B.! 1.g.l.s.4.] ",
"d.1.:.;.&.1.4.4.t.4.1.1.1.4.4.6.2.1.6.>.e e e 8 C I 7 7 .X{.3XQ.R.W.W.6XOX_.S 2 o o sXY K x r 2._ -.d.8.4.4.t.g.k.! } 4.8.3.:.} ",
"t.t.d.8.1.2.t.f.f.d.d.8.1.8.t.t.4.8.) u # o 8 V /.`.* * F w.2XXX/./.XXXX!.I F N x L @X^.V 6 r 4.%.:.d.t.t.d.t.d.c.! 1.s.d.4.1.4.",
"g.h.x.f.8.t.g.h.n.n.x.f.4.d.g.t.d.6.s @ 0 o T R.@X+Xo : : m {.1X6X1XpXT m 8 p.W.I }.R.{.V y i t.&.:.y.d.g.g.f.d.c.! 8.t.h.t.t.t.",
"t.h.c.l.d.t.g.g.n.g.4.<.;.8.z.V.C.t + # i X fX:X*Xa., M M * c T T M M fX< !.I /.1XV %XN ; s 8.4.$.1.1.d.z.g.r.f.h. .&.r.t.z.t.2.",
"h.4.&.] g.g.k.B.V.k.t.t.t.B.+ @ * F (.(.i 9 @ m M z 4 E M R.T R.R.T fXeX, c OX!.P rX%X{.5 g 6.r.&.-.-.d.z.g.t.f.r.Q ] r.t.g.g.r.",
"m.y.y.l.4.1.4.g.t.t.g.*.X @ a }.%X|.Q.K 9 i o m w.a.o * M _.eX:X/.M eX.X, OX/.XX1XN wXo #.6.4.2._ &.&.g.f.t.t.8.8. .r.z.j.t.g.V.",
"7.t.8.l.i.q.q.l.y.u.r & 1 1X(.E.L y , > + i X c x > * = M H y a.^.M 8 S * 5 a.p.I {.P o @.7.2.-._ $.1.t.8.q.8.5.7.O.u.i.q.q.q.i.",
"6.q.i.7.i.0.7.i.i.f w 3 F w.S c y a s f o q @ 6 e p t - w.w.@ b N 7 K p./.5 N b x L 7 j ;.1.-.&._ -.5.q.y.8.l.0.<.;.x.u.q.8.8.q.",
"5.8.d.l.q.<.:.d.d.q w y w.2 r r r O.7.=.r O w r s / / ; ].].x , * 4 }.2XfXV * 3 r a 0 i.7.7.&.$.;.6.8.8.t.d.x.7.5.t.d.d.d.f.x.i.",
"5.8.d.d.6.' ] d.g.f.i e w e 5.t.g.z.q.g.l.e *.-.%./ ~ ; ).*X'.x 5 z ).aXfXW.5 f y.V.{ 1.7.,.$.+.5.i.8.2.d.g.c.1.t.g.z.g.d.x.c.i.",
"t.c.c.z.1.&.4.n.n.2.8.4.f.g.d.8.g.t.f.d.l.7.;.4.*./ ~ = K {.Q.T V * M ).9X|.v f 8.c.7.:.7.,.%.^ ,.x.l.2.l.z.l.4.g.f.f.2.g.l.d.3.",
"g.g.g.g.f.f.f.f.h.g.d.t.4.f.d.d.4.8.d.l.l.&.&.t.=./ ^ ; .XV x ).a.o M : - e.v f 6.1.l.<.7.6.$.^ =.x.l.g.g.d.g.y.j.x.;.f.d.7.1.t.",
"r.s.f.t.4.1.1.1.l.y.;.] 4.8.3.4.4.1.1.t.z.$.1.g.,.+.6.d.* ].z (.!.@ o fX=XC Q.S 1 ' V.7.8.6.$._ ;.5.t.4.f.d.8.2.t.{ 4.s.2.] ` 2.",
"4.t.8.t.4.1.<.d.d.8.1.:.7.5.:.f.t.} 3.y.t.$.5.l.9.@.;.y.* _.M Q.e.+ c.o dXK  XU 1 8.B.x.q.7.:.&.8.d.c.c.f.y.6.t.g.g.g.f.r.t.g.t.",
"4.2.4.4.d.d.8.d.d.d.8.6.<.;.i.g.r.1.6.d.4.%.8.l.7.@./ 0 7 B ^.oXQ.+ g.o dXK ;XW.1 N.h.N.7.8.5.&.%.d.N.B.h.z.f.4.d.d.d.t.f.d.z.g.",
"r.r.4.t.d.g.d.y.l.f.y.7.,.*.d.g.t.4.8.8.2.' 8.x.@.j s , L S ^.).w.X g.o pXY 6X~.w #.g.m.0.6.6.&.%.y.c.m.c.h.g.t.f.f.t.t.y.g.c.g.",
"f.g.z.x.b.c.t.4.l.f.s.4.5.@.x.g.4.1.8.8.1.%.y.y.f   ; n eXOXT H x + l.* 8XY 6XXXx   g.d.,.5.7.5.:.7.l.b.m.B.n.g.f.t.d.4.8.l.c.c.",
"f.t.4.3.8.l.h.f.y.l.y.8.,.+.8.g.d.8.d.r.&.&.g.O O D wXwXR.eX%X[.].].o o 0XE.^.w.v   j.&.,.,.1.1.1.y.d.x.x.c.z.d.d.l.c.g.8.8.d.z.",
"g.g.s.t.[ <.m.c.4.d.y.8.;.#.z.z.c.c.g.d.&.:.d.O W.pX(.E M M _.w.H * o _._.$X*X^.K   f.} 7.7.6.r.8.i.y.6.1.1.5.6.d.m.B.g.4.t.l.n.",
"! ! ! ! k k  .! Q k | |  .u.z.6.g.n.g.d.6.x.d.% . @ * @ - * - * x (.8XR.8XW.;X:Xe.  ! k | | | A |  . .k j k h h A  . . .| A |  .",
"r.r.y.y.<.*.' 8.7.3.;.&.#.u.8.1.f.r.8.t.l.Z.h.3.+.! ~ ) ) { ;.w < S T pXE 6X~.W.Q.  2.4.8.l.l.x.i.q.,.-.1.5.5.4.y.<.@.( ` &.2.2.",
"s.g.n.x.8.&.&.l.d.y.4.1.%.q.d.x.f.r.2.1.l.B.g.g.<.( :.t.7.d.8.;. ., : S < N 8 3 t ( 4.c.x.f.g.h.g.g.g.d.8.4.t.g.y.6.] ' -.2.4.r.",
"f.k.n.x.8.;.] z.t.q.q.8.&.<.l.h.j.t.4.2.f.f.2.t.<.+.5.f.1.d.4.c.i.o.o.O.o. .k ! ( d.6.N.l.8.r.4.r.h.g.d.4.r.t.n.l.t.6.2.4.r.t.t.",
"g.h.c.g.8.3.} f.t.t.d.t.5.,.g.g.g.d.8.8.r.2.-.t.<.%.,.s.3.f.f.V.Z.m.n.j.g.f.4.4.g.g.f.c.d.t.4.d.f.g.g.f.f.g.n.B.V.b.l.t.4.r.t.g.",
"g.c.g.f.d.8.&.l.8.d.z.d.6.,.t.g.g.d.l.d.g._ 1.4.,.@.,.f.y.8.g.V.Z.B.h.j.f.f.4.t.g.j.x.c.d.f.f.d.z.z.d.d.c.c.n.V.N.N.b.q.1.2.t.k.",
"4.g.h.g.g.t.} l.d.t.z.d.i.0.t.g.t.4.d.c.g.~ 4.1.$.( *.5.2.h.k.Z.H.B.h.h.f.1.2.g.n.B.B.:.1.t.d.6.6.f.k.l.1.:.&.' %.%.$.$.$.-.t.n."
};
