/* XPM */
static char *_23487e7d7204ff1bf969b882a8231e4oRU3sXBcXy48Path[] = {
/* columns rows colors chars-per-pixel */
"64 64 252 2 ",
"   c #040302",
".  c #0A0503",
"X  c #0D0905",
"o  c #080709",
"O  c #0B0A0A",
"+  c #130A04",
"@  c #1A0D07",
"#  c #130D0A",
"$  c #0D120D",
"%  c #15110B",
"&  c #1C110B",
"*  c #141313",
"=  c #1A1818",
"-  c #280C03",
";  c #390700",
":  c #22140D",
">  c #2A1709",
",  c #361806",
"<  c #281A12",
"1  c #361D13",
"2  c #133309",
"3  c #3B2306",
"4  c #2B2C14",
"5  c #3C2215",
"6  c #39251A",
"7  c #1F1F21",
"8  c #201F22",
"9  c #152B2A",
"0  c #272729",
"q  c #342C27",
"w  c #2D2C31",
"e  c #2F3230",
"r  c #37373A",
"t  c #4C1107",
"y  c #6C0502",
"u  c #462706",
"i  c #4F2E0D",
"p  c #573606",
"a  c #452514",
"s  c #4A2915",
"d  c #482919",
"f  c #522D17",
"g  c #55331C",
"h  c #58351A",
"j  c #653907",
"k  c #652C16",
"l  c #753519",
"z  c #6D0E2C",
"x  c #49352B",
"c  c #593825",
"v  c #5E3C25",
"b  c #663B26",
"n  c #603D27",
"m  c #763D27",
"M  c #174A06",
"N  c #175903",
"B  c #274A06",
"V  c #196602",
"C  c #1F7702",
"Z  c #2D5427",
"A  c #554809",
"S  c #674606",
"D  c #784903",
"F  c #795806",
"G  c #725211",
"H  c #776218",
"J  c #584A34",
"K  c #64412B",
"L  c #69452C",
"P  c #77422B",
"I  c #694B37",
"U  c #754B3A",
"Y  c #775C31",
"T  c #7E523E",
"R  c #3D3D42",
"E  c #1A4744",
"W  c #3F4046",
"Q  c #297677",
"!  c #474648",
"~  c #52504A",
"^  c #4D4C53",
"/  c #545559",
"(  c #68594D",
")  c #7A5744",
"_  c #786452",
"`  c #5B5C64",
"'  c #5D6664",
"]  c #67676A",
"[  c #6B6C74",
"{  c #6B6C76",
"}  c #737073",
"|  c #75757B",
" . c #8D0402",
".. c #A80404",
"X. c #853A1C",
"o. c #970B3E",
"O. c #8D3726",
"+. c #DE0505",
"@. c #885A06",
"#. c #945905",
"$. c #8A5011",
"%. c #A05C06",
"&. c #886606",
"*. c #986906",
"=. c #8C710F",
"-. c #997505",
";. c #A66702",
":. c #A57B05",
">. c #BC7605",
",. c #B2710A",
"<. c #8D4224",
"1. c #884729",
"2. c #934829",
"3. c #944A2B",
"4. c #8A4D34",
"5. c #994E31",
"6. c #83533A",
"7. c #9D5234",
"8. c #9F5739",
"9. c #9A5A39",
"0. c #A15637",
"q. c #A15638",
"w. c #A25C3B",
"e. c #98782E",
"r. c #9E623B",
"t. c #A3643C",
"y. c #A7683D",
"u. c #AC6B3D",
"i. c #B16E3D",
"p. c #AF743C",
"a. c #C77B03",
"s. c #D17F00",
"d. c #A9044B",
"f. c #E2026C",
"g. c #825743",
"h. c #AB5F41",
"j. c #926C4C",
"k. c #997658",
"l. c #A76742",
"z. c #AC6D42",
"x. c #B16E41",
"c. c #AD7144",
"v. c #AC754B",
"b. c #B47344",
"n. c #BA7644",
"m. c #BC7945",
"M. c #B37649",
"N. c #B57B4C",
"B. c #BC7D4B",
"V. c #A67B59",
"C. c #B97D51",
"Z. c #8F7867",
"A. c #A07D60",
"S. c #C07746",
"D. c #C37D46",
"F. c #C37E49",
"G. c #C37F50",
"H. c #1F8102",
"J. c #268803",
"K. c #2A9C01",
"L. c #12AE02",
"P. c #2FAA04",
"I. c #26B902",
"U. c #33B602",
"Y. c #38C502",
"T. c #3DD304",
"R. c #53E622",
"E. c #79F64D",
"W. c #968603",
"Q. c #AA8607",
"!. c #B78806",
"~. c #B58F0D",
"^. c #B48F2A",
"/. c #CB8506",
"(. c #D38301",
"). c #D88C03",
"_. c #C89806",
"`. c #D99905",
"'. c #CF9618",
"]. c #E29903",
"[. c #C6A608",
"{. c #D8A507",
"}. c #D8B808",
"|. c #D7AD16",
" X c #E7A704",
".X c #E9B505",
"XX c #F4BB03",
"oX c #F5BA06",
"OX c #ECB514",
"+X c #DBAD24",
"@X c #D7C708",
"#X c #E8CD08",
"$X c #F5C605",
"%X c #FCC302",
"&X c #FCCC03",
"*X c #FAD705",
"=X c #FDDC04",
"-X c #FDE703",
";X c #FDF100",
":X c #BD814D",
">X c #A98158",
",X c #BC8453",
"<X c #B9855A",
"1X c #9A846C",
"2X c #A68368",
"3X c #B88B65",
"4X c #B5906E",
"5X c #C88247",
"6X c #C4824C",
"7X c #CC844B",
"8X c #CE894E",
"9X c #D1854C",
"0X c #D08A4E",
"qX c #C38552",
"wX c #C48A55",
"eX c #C78B57",
"rX c #CC8B53",
"tX c #D18D52",
"yX c #CD9156",
"uX c #CD935B",
"iX c #D39255",
"pX c #D4955A",
"aX c #D5995D",
"sX c #D99B5D",
"dX c #C8966A",
"fX c #D69D63",
"gX c #DBA569",
"hX c #D8A775",
"jX c #E3A86A",
"kX c #E4AA6B",
"lX c #E4AF72",
"zX c #E7B476",
"xX c #8BFA61",
"cX c #7B7C86",
"vX c #2E8686",
"bX c #7F808B",
"nX c #43BFBD",
"mX c #48D2D2",
"MX c #84858D",
"NX c #898A95",
"BX c #90929A",
"VX c #A89B99",
"CX c #999BA7",
"ZX c #A6A8B4",
"AX c #AAABB7",
"SX c #B9BAC6",
"DX c #C8C9D6",
"FX c #CCCDDC",
"GX c #DCDCE3",
"HX c #E7E6EB",
"JX c #EDEDF2",
"KX c #FBFAFB",
/* pixels */
"gXzXzXgXgXjXc.6XD.F.M.9XB.v.B.7XD.z.D.rX6XN.B.b.r.U y.7Xm.m.9X<XlXkXkXkXkXkXlXzXhXgXkXjXjXjXjXjXjXfXsXjXjXzXzXlXlXlXzXzXzXkXkXkX",
"gXpXrXiXiX:Xr.b.6X5Xt.9X6Xv.B.8Xm.qXm.B.6XfXb.b.l.U 7XrX7XrXrXqXzXtX9XtX0X8X8XqXz.9.u.D.7X7X7X9X5X5X7X7X5XiX:Xb.n.n.p.6XtX7XD.5X",
"gXiX6XrXtX:Xt.n.9X9Xw.7X:X<X8X7Xz.eXl.c.yXrXy.b.,XT 6Xz.rXqXrXG.kX8XD.B.:X:X6Xn.u.i.D.7X7X9X7X7X9X5X6XF.7X7X7X9XrX8X5X7XF.D.D.D.",
"fXiX:X6Xb.aXb.rXtX7Xy.7XB.<X8XB.k.q   # _ eXN.N.fX) iX,Xb.N.F.7XkXF.m.S.m.5X7X8X6X7XrXiXpXiXiXiXiXaXpXiXqXB.n.n.b.b.b.qXiXsXpX0X",
"gXtX8X6Xu.iXi.6X6X7Xm.7XB.N.rX: O ` BX[ #   J eXpX) uX,XS.S.S.9XzXsXpXuXaXfXrXrXqXl.y.l.l.w.y.l.b.n.B.F.6XF.5Xm.b.z.z.B.rXfXpXtX",
"jX0XiXiXqX5Xi.:XB.8X5XtXC.V.< ^ ZX! = .       X X # * * = 0 0 q J ! ( k.3X3XN.c.B.eXrXtX7X7X7X6X5X7X7X5X7X7XD.5XF.5X7XD.7X7X7X7X",
"lX7X0X0XaX5Xx.qXz.F.7XiXB.q ! ZXx < f P m m b v b m m b m b b g d 6 1 < & + . = x } 2X>Xv.z.c.l.z.z.z.i.i.u.i.i.i.t.i.t.u.y.u.u.",
"kX9X7X9XiX5Xy.F.6XtX8XyXV.* ZX^ . l b + o o O O X . 6 h.w.w.7.5.3.1.<.1.4.9.9.P d @   .   w Z.C.qX7X7X9X9X9X9X7X5XT F.t.F.x.m.9X",
"kX5XD.5X8X5Xr.l.6XyXtXuXq ` VXa k , X ` BX{ MXSXSX] 7 & h.h.h.h.l.6.4 N V M A 9.9.5.1.X.m d * o 0 ~ 2Xn.M.B.B.6XD.6.F.y.7Xb.b.7X",
"kX5XD.9X7X7Xr.l.F.tXtXk.  [ w @ 1 O NXSX=   O SXKXJXcX* a 2.5.5.4.B U.E.E.Y.M J h.l.h.h.7.5.7.m 1     7 ^ _ V.c.M.U 6Xy.rXn.t.7X",
"kX9Xn.F.9XF.9.l.B.uXk.* * O O o   CXFXAX    r GXKXKXcX8 # 1 1 f 4 C R.xXE.Y.Y.2 8.h.h.h.h.9.<   o * W / ! 0 O   6 U 6Xz.iXB.c.7X",
"kXD.n.9X9XF.r.z.z.rX  NXSXSXSX` = FXFX{   cXDXJXKXSX{ o R R w 8 2 K.T.R.T.L.L.N w.q.0.4.m 1 w NXMX] ^ r W [ ZXZX/ O k.z.pXN.eX9X",
"kXD.S.F.7XD.t.,XB.q   / ] cXcX8 ! FXCX    SXHXKXGXcX0 R SXAXSXSX^ J.I.I.L.L.I.2 4.h.4.: = } { w o * & 1 : % . R ZXbX= k.rXeXaX8X",
"kXD.S.9X7XD.z.yXuX_   O O O o   o BXcX^ ^ HXKXGXcX<   ! cXBXCXMX1 M I.L.L.L.N $ < 4.+ 7 CXq o < c v v v h K c #   MXNX  3XyXsX6X",
"kX7XD.9X7X8Xc.rX8X7Xk.# r { [ R   O 7 w J ' / 0 O o # # O o o X p ~.M N N M ' {   X r MX7 & f v K K K K v v L K 6 $ BXr ~ uXiXn.",
"kXF.D.9XtX7Xz.qXm.F.u.,X8 w { { R o   % % * @ : < d a a a a a a , p *.=.=.A $ BXR 0 MX0 @ c v c K K K K K v v L K : e AX. pX7Xu.",
"fXF.G.7Xt.7Xu.qXp.b.z.8X4XX O ' { ` O O 6 d d s 5 7 s s s s s a , #.u - - -   w ZXZXR O c K v n c K v K K K g L L x o FX= 3X6XB.",
"gXF.F.7X9.6Xy.6Xb.p.( M M N N N M M 9 * . 1 d d 9 vX4 s s s a a ^.`.a.u ,   #   0 W   d K n n n c c K K K K L v L b . SXw Z.B.uX",
"gXB.m.9Xt.5Xy.B.:X>XN J.K.P.U.P.T.T.C Z 0   1 4 vXmXE 5 a s s 3 +X).>.3 s 5     & & 6 K v v v n n c v K K K K K h v   SXR _ B.iX",
"jXb.n.9Xl.5Xr.c.>XB J.J.K.P.P.U.U.T.T.N ! r   9 mXnXvX7 s s 5 i OX/.^.a s s a . & L L g v v v K n n g n K K K K K g O DX9 V.D.b.",
"jXb.p.9Xc.5Xt.:XB V V V C K.K.P.P.Y.Y.U.2 ' / 9 mXnXQ 9 s d a ^.`.'.a a s s s 1   : K L h v K v n n n g K K K K K 1 q SX  rXD.9.",
"jXS.m.8Xb.5Xy.6XJ N V N V K.K.K.U.Y.Y.N 2 J Y 9 vXQ E = s d i +X/.~.; a s s s s 5 . < K L c v v n n n n g n K K x   { R r 9XB.5.",
"jXD.:X8Xn.5Xy.D.yX2 N N V K.K.K.Y.Y.J.B u OX*X=.E 9 4 S i 3 e.`./.G u a s s a s d a   & K K g v n n n n n f K x   ! BX. dX0Xm.z.",
"kX5X7X0Xi.7Xy.8X6X4X2 N N J.K.P.Y.U.N #X;X*X-X-X-.{.XXQ.~.u '.].'.p {.S , a s a , - -   & L K g n n n n n n d . e AX0 J 5X8Xb.uX",
"kX7XtX0XM.7Xz.2XZ._ A 2 2 B C U.Y.V W.*X=X%X].).).).XX`.Q.p OX/.^.F %XS ~.u t y ..y t 1 . < K K c v n v x : & ^ ZXr x rX7X8Xz.fX",
"zX7XtX0XF.F.k.a.(.].XXS .X#XQ.4 M A -X#X Xa.a.a.a.(._.`.&.p '.>.u [.%X:.%Xp ..+...y 1 s a   : L n c c <   * MXBX= < eX5X5X7Xu.pX",
"zX7XiX0XeX2Xs p >.(.a.j .X#X[.S }.$X&X$XD &.~.F p p :.*.Q.}.p G u $X%XXX X; .... .; a s s 1   - v c : 7 | CX^ * J ) N.7XD.D.t.pX",
"zX7XrXeXZ.#.a.(.(.(./.u , 3 , &.-X&X~.:.Q.#X-X[.F {.G ~.Q.&.*.;.S {. X].*.t y t y ; , a a a 1   : 6 . CXMX* 0 1Xc.U M.D.m.S.t.pX",
"zXA.] ] 6 ;.a.>.>.a.a.;.OX{.{.S &.*.S _.u D S 3 -.}.-.{.&.S S [.{.~.`.'.s.;., t +.+.t u - o & &       [ NX* / C.l.U b.b.b.B.:XyX",
"zX* o o   . @ @ - @.a.p S !.[.{..X.XXX%X_.F &.@X&XXX3 p .X*X#X-.k z o.>.].].@.y  .y ;.(.,.d w =         / CX$ ( N.T z.z.B.B.yXeX",
"zXR R bXw + 1 @ + . . - : 3 i =.{.XXXX$X$X&X=X&X&X-X#XS F Q.Q.u o.d.f.z .X-X-X-.D &.oX%X XL { { cX/     ^ CXe & wX) z.z.:X:XrXuX",
"zX! ` DX^ ; X.X.X.l k a > + X       3 A -.[. X.X$X&X*X{.i 3 3 &.k d.o.k oX*X*X;X-X*.:.%X`.S u O O 0 0   w # = 3XiXT B.uX:X:XyXuX",
"hX~ / GX/ > O.0.0.7.3.<.X.X.l l l f u :     + @ > 3 &.!.[.}.@X@X'.Q.Q.Q.Q.Q.&.W.W.H u F F F A + X           ] rXrXg.eXiXc.<XtXaX",
"hX/ / HX/ - X.2.5.0.0.0.0.3.X.X.X.X.l X.X.l k s 3   * *           o   X X # X + @ $ % % % % @ % & & &   0 o ~ rXtX6.yXrX,XfXrXuX",
"hX/ / HX] > 2.0.2.O.X.<.2.5.3.<.X.X.<.0.5.3.2.X.X.X ` CXCXMXcX  x c K K v v v v v v v v K h K K v v c   [ . MXrX8X6.qX9XuXeX8X,X",
"zX` / HX` - <.0.0.0.7.0.7.7.7.2.O.X.O.3.0.0.7.0.9.& { SXZXNXcXo d K K c K v v K v v v K K K K c n n 6 * } + VXqXrX) F.9XaX:X6Xc.",
"hX] ^ HX} - <.0.0.0.0.0.0.0.0.0.7.0.7.5.2.2.2.2.2.& { FXDXNXcXo d v v v v v v v n n n v n n n K n v * w [   dXqXrXT 6X8XaXqX5Xy.",
"hX] ! JX| @ l 5.7.7.7.0.0.0.0.0.7.0.0.0.q.7.0.q.8.: { FXFXBXcX* 6 v v c c g g f f f f f i a f s u a O ^ /   F.qXtX6.6X5XyXrX5Xu.",
"v.} ! JX| : X.7.7.7.<.<.<.5.0.0.0.0.0.0.0.0.q.q.8.< ] FXFXCXcX* 1 c v v v v v v n n n n v v v n n c o ` w ! qXqXtX6.t.u.b.u.y.t.",
"8X} ! HX| - <.0.0.0.0.0.7.5.3.3.2.<.3.7.0.q.q.q.8.: ` FXFXZXcX7 < v v v v K v v v n n n n n n n n d   { = 2XG.qXtXT 6X5XiX,Xu.5X",
"7X| R JX| & <.0.0.0.0.0.0.0.0.0.0.0.7.<.X.<.3.7.8.< ` FXDXZXcXw < v n n n n n v v n n n K n n n n 5   |   dX5X6XrX) F.9XG.C.D.7X",
"5X} W JX| @ <.0.0.0.0.0.0.0.0.0.0.0.0.0.0.0.0.7.5.: ` FXFXAXcXw < n n n n v n F &.n c g f s u f s & w / = uX7X5XqX6.b.m.F.7X6Xz.",
"yX1Xr JXMX@ X.3.2.2.2.3.7.7.0.0.0.0.0.0.0.0.0.0.q.< ` FXFXSXcXw & g h g s p u OX`.@.f c b K L b n + / R w B.7X6XF.6.x.m.7X5X7X7X",
"uX2Xe JXMX+ 2.0.0.0.0.5.O.<.<.3.7.7.0.0.0.0.0.0.w.7 / FXFXSXcXR @ c j p F %X.X:.Q.%XF j h v h p *.3 ` 0 ^ qX8X:XB.) D.7XrX5X7XpX",
"B.2X0 HXBX+ 2.0.q.q.q.q.0.0.0.7.7.3.<.X.<.7.0.0.8.1 / FXFXAX! 5 Q.D XX-X=X&X-X.X].%X{.XXF p .X_.$XF ~.@ _ j.1Xv.v.g.eX<X,XN.v.C.",
"v.<XX   X . 1 d b 4.q.8.q.0.q.8.0.w.7.q.0.3.3.3.2., ^ Z.) #.).oX=X}.&X&X&X X(.).(. XoXQ..X#X-X-X$X_.%X_.:.$Xe.>Xv.v.:X:Xv.B.B.<X",
"n.rX3X3X4X_ e < O   . 6 c P 4.7.8.0.7.0.0.0.0.0.1.j j >.&X%X%X&X&X=X-X=X`.*.#.@.#.#.*.XX-X-X&X&XXXXXXX=X&XXXj.3X:X6X8X8XF.8XiXN.",
"z.t.m.rXv.9.t.N.wXeXA.x +     # & d 4.w.0.0.0.0.k #.(.].].XX%XoX=X=XXXoX&.#X-XF .X{.%X%X$XoX].].].(.(.(.(././.>.S j.eX:XrX:XuXeX",
"D.iXfXeXy.l.D.iXpXb.u.:X5XwX>Xk.~ q + + : 1 d h #.;.s.s./.XXXXS !.#X_.*.S -.@.p $X-X=X-X;X&X X<.<./.`. X X X X]. Xa.3Xz.9XrXqXb.",
"7X7X7X7X7X7X7X7X0X0X6XN.5X6X:XrXz.7Xm.eXk.e 6 #.a.a.>.a.D {.oXoXQ.-.-.XX:.A F @X%X&X-X&X%X%X3.d.f.o.%X-X;X;XXX{.%X`.H 3XeXv.z.F.",
"S.F.F.6Xn.b.i.b.qXeXy.u.B.n.M.6XF.b.u.rXF.t.V._ s u j a.a.p p S _.XX%X%X%X%X&X%X-X;X-X%X&X&X'.z o.k %X$X=X-X=X-.{.%XXX>., I l.b.",
"5X5X5XrXB.c.c.6X6X:Xc.z.:XN.z.D.6Xi.y.A.e.e.Y rXZ.j >.$.>.(.).`.].oXXX%X%X%X&X%X%X%X%X%X=X-X-X.X}.$X X%X~.&.W.F `. X).(.s.;.$.3X",
"b.l.l.b.F.7X5X6XqX8XB.M.,Xz.N.5X7Xb.N.@.$X-X#X) dXx , #.@.F D ;.(.(.(.XX{. X%X{.oX%X.X&X&X%X X.X[.Q.*.%X%X{.). X).a./.(.a./.p 2X",
"7X7X9X7X9X6Xb.:XtXD.7Xu.j.l.uXrXS.x.C.- S &.3 x S @X[.p XX*X}.3 (.(.(.XX!.u &.u  X&X_.-.-X$X&.-..X{.&.%X%X).%.j ;.D $.j , d fX7X",
"5XrXqXeXuXiX7XB.6X6X8Xv.e.e.e.9XB.b.B.6Xk._ 2XV.@.$X*X*.S S u #.s.s.#.s.].`./.!.-.-. X_.~.>. X].!.!.XX X].#.:.}.Q.V.7X8Xn.B.rXrX",
"7XB.M.x.c.qXuX7Xn.6X9Xe.$X*X|.k.6XC.6XG.l.l.qXqXc , 1 1 k.k._ I j %.i a.,.#.>.&.@X#XF ).(.(.(.(.(.(.(.).(.$.j [.}.>XyXuXn.B.B.qX",
"8X7X5X5Xc.c.pXrXB.b.wXa i G 3 k.rXyXG +X+Xe.eXB.t.U rXrX7XF.8X7Xi ;.>.u 1 , p @.}.-., a.s.,.(.s.s.(.@./.>.,.j , 3 qXpX0Xn.N.eX0X",
"T T T T U U 6.T T U T U ) >X6Xb.0XiX$.$X=X^.g.b.C.T z.M.tX7XpXtXjXV.V.:XrXx.5.) > - ( ) _ Z.J I L u c U b ) U I U Y ) ) T U ) 6.",
"F.5XyXwXl.,Xc.:XqXC.M.b.l.<X:Xt.9X7XL , u g qXiXpX) y.n.6X9XyXpXkXl.v.6X8Xc.l.G |.}.F 3XF.fXfXuXeX,Xc.l.D.F.N.F.rX,Xl.r.u.m.6XF.",
"n.8XtXaX,Xr.y.6X6X:Xn.m.l.,XN.pX7X5Xb.z.iXaX7XtXy.U 6XF.b.7Xx.n.kXM.aXrX0X6 i , =.-XQ.Z.rXF.F.9X8X5X8X9XqXz.7XrXc.l.l.r.w.u.i.n.",
"9X9XiXrXl.r.y.rX6XB.F.D.j.v.rX8X9X5Xc.c.7X7Xb.9Xn.U 9XD.z.7XB.m.kX:XsX0Xk.OX*X-XQ., 6 dXqXS.n.S.F.5X7XrXu.b.7X0XrXwXn.b.D.7X9X9X",
"9X8XiXqXF.6Xb.6XF.B.qXF.c.v.5X7X7X8XB.B.5XS.u.F.rX) rXD.b.qX6X8XkX8XiX0Xk.p -.=.1 dXn.uXyXn.x.n.m.tX0XF.5X8X8XiXrXqX6X6Xm.F.7X8X",
"7X0XwXb.rXB.u.qXB.B.wX7Xv.v.6X8X8XF.6X,X5X8.b.S.S.g.M.qXqXB.D.8XkX6X0X9X6X2X, x dX8XtXiX:XD.8XrXiX6XD.F.8XaXsXsXsXgXaX<Xc.u.D.7X",
"n.8X8X8XD.6Xp.qXF.D.qX8XB.v.5X7X5Xz.7XuX6X9.C.n.z.U C.n.n.8X9XaXkX7X0X8X8Xz.u.iXtXpXyXz.z.7XyXl.n.8XtXrXn.y.t.r.t.r.l.w.w.l.7XrX"
};
