/* XPM */
static char *_2f02c3647554d77f257682fd8c7c669WCJ8ydLekeVTahH2[] = {
/* columns rows colors chars-per-pixel */
"64 64 187 2 ",
"   c #0676B6",
".  c #0277BD",
"X  c #0876BA",
"o  c #0379BE",
"O  c #0B7CBD",
"+  c #107FBD",
"@  c #0377C0",
"#  c #037BC2",
"$  c #0A7DC3",
"%  c #037FC8",
"&  c #0C7FCA",
"*  c #127CC0",
"=  c #1780BE",
"-  c #0480C6",
";  c #0980C6",
":  c #0384CD",
">  c #0B83CA",
",  c #0489CE",
"<  c #0D8ACE",
"1  c #1383C5",
"2  c #1A86C6",
"3  c #1A88C6",
"4  c #1586CA",
"5  c #1987C8",
"6  c #138CCC",
"7  c #1D8CCB",
"8  c #1D91CE",
"9  c #0387D0",
"0  c #0489D2",
"q  c #0B8DD3",
"w  c #048DD9",
"e  c #0A8FD8",
"r  c #1784D0",
"t  c #118ED3",
"y  c #1C8DD2",
"u  c #0691D5",
"i  c #0D91D6",
"p  c #0590D9",
"a  c #0C94DB",
"s  c #0F98DE",
"d  c #1392D5",
"f  c #1B93D4",
"g  c #1495D9",
"h  c #1A96D9",
"j  c #149ADD",
"k  c #1C9ADC",
"l  c #218DCD",
"z  c #288ECD",
"x  c #2591CF",
"c  c #2A95CF",
"v  c #329BCE",
"b  c #2593D2",
"n  c #2C96D2",
"m  c #2399D6",
"M  c #2A99D5",
"N  c #2097D9",
"B  c #239CDC",
"V  c #2A9EDB",
"C  c #349BD4",
"Z  c #3A9ED6",
"A  c #359ED9",
"S  c #3A9FD8",
"D  c #2CA0DD",
"F  c #3BA2D7",
"G  c #34A5DE",
"H  c #3CA3DB",
"J  c #3CA8DF",
"K  c #0D98E0",
"L  c #139CE2",
"P  c #1B9EE1",
"I  c #16A1E5",
"U  c #1BA3E5",
"Y  c #1CA6E9",
"T  c #1EA9EC",
"R  c #1EB0F3",
"E  c #22A3E4",
"W  c #2AA3E2",
"Q  c #2DAAE7",
"!  c #21A6E9",
"~  c #22ABED",
"^  c #28AFEC",
"/  c #34A6E1",
"(  c #39A7E0",
")  c #34ABE6",
"_  c #3CABE3",
"`  c #33AEEA",
"'  c #3CAEE8",
"]  c #2BB3EC",
"[  c #3FB0E7",
"{  c #33B3EE",
"}  c #3BB4EC",
"|  c #23AEF0",
" . c #29AFF1",
".. c #25B2F3",
"X. c #29B4F4",
"o. c #2CB9F5",
"O. c #27B6F8",
"+. c #2DBBFB",
"@. c #35B5F3",
"#. c #34BAF5",
"$. c #3CBAF4",
"%. c #39B8F8",
"&. c #42A3D6",
"*. c #42A6DD",
"=. c #44A9DE",
"-. c #4BADDE",
";. c #68BEDF",
":. c #41A7E0",
">. c #44ADE3",
",. c #4AADE2",
"<. c #51AFE2",
"1. c #45B1E6",
"2. c #4DB2E5",
"3. c #44B3EA",
"4. c #4CB5EB",
"5. c #4BBAEE",
"6. c #52B2E3",
"7. c #59B6E5",
"8. c #5EB9E5",
"9. c #53B7EA",
"0. c #58B7E9",
"q. c #55BBEC",
"w. c #5CBDEC",
"e. c #42BBF3",
"r. c #4CBDF3",
"t. c #55BDF0",
"y. c #5ABFF2",
"u. c #62BEEB",
"i. c #5EC1ED",
"p. c #47C0F6",
"a. c #48C0F6",
"s. c #4DC2F8",
"d. c #50C0F6",
"f. c #5CC2F2",
"g. c #56C3FA",
"h. c #5BC6FA",
"j. c #54C8FE",
"k. c #5AC9FB",
"l. c #64C1EE",
"z. c #6BC4ED",
"x. c #70C2E7",
"c. c #71C6EC",
"v. c #75CAEE",
"b. c #78CAEF",
"n. c #63C3F2",
"m. c #64C4F3",
"M. c #66C5F3",
"N. c #6BC6F2",
"B. c #6DC7F3",
"V. c #66CBF6",
"C. c #69C9F7",
"Z. c #6DC9F4",
"A. c #6FCBF7",
"S. c #66C7F8",
"D. c #63CBFB",
"F. c #69CBF9",
"G. c #6BCDF9",
"H. c #6CCDFD",
"J. c #70C5F0",
"K. c #71CBF3",
"L. c #76CCF1",
"P. c #73CBF5",
"I. c #74CBF4",
"U. c #76CDF6",
"Y. c #79CDF1",
"T. c #79CDF4",
"R. c #7ACEF4",
"E. c #74CEFC",
"W. c #78CEF8",
"Q. c #7CD1F5",
"!. c #7CD1F7",
"~. c #76D0FB",
"^. c #75D2FD",
"/. c #75D1FF",
"(. c #74D3FF",
"). c #78D0FA",
"_. c #7ED3F9",
"`. c #7ED5FB",
"'. c #7CD4FC",
"]. c #71D9FF",
"[. c #82D2F7",
"{. c #80D1F9",
"}. c #82D4F9",
"|. c #81D5FA",
" X c #81D5FB",
".X c #82D9FF",
"XX c #8BDBFF",
/* pixels */
"U.i U a 9 9 9 9 9 9 9 D 2.d 9 9 9 9 0 e e e 0 n._.I.g.j 9 9 9 9 9 9 9 9 0 U > # . . o o # D _.U.I.I.K.*.# : 9 9 9 9 9 9 9 0 i U.",
").~./ 0 9 9 9 9 9 0 q / `.`.d q q q ~ ....X.L M.9.1 U 0 0 0 : 9 9 9 9 9 9 % ! g # # > q d R.9.1 . @ , >.G 0 9 9 9 9 9 9 0 / Z.W.",
"_ {.l.h 9 9 9 9 , d 9.l.}.{.9.9.9.9.E s j g j F.J.2.| Y Y I $ 9 9 9 9 9 9 % 6 k P U _ 9.9./ B > o : 0 k 1.q 9 9 9 9 9 9 h ,.A C ",
"~ a.G.M.0 9 9 9 >.l.U.V V V x M e.A 2.$ # # ; x -._.3.< < < P 9 9 9 9 9 9 , : q a ) 3.B $.9 9 9 : 9 9 9 q.d : 9 9 9 < y.2.5 o U ",
"$ u T +.z.6 : J !.G.L ..L 0 o ; | < > c.. . . . Z }._.v.b.o | 9 9 , v., 9 9 9 9 k 1.0 9 q Y 9 9 9 9 9 : 0 z.g 0 _ v.B.& $ q ^ ; ",
". # : 0 Y././._ 6 d : 0 j ..X.^ # # . + S.,.. y.L.B.+ + = /././././.6 H./.W 9 0 B 4.9 9 0 ~ 9 9 9 9 9 9 , 6 C.'.-.+ 1 . . t ..# ",
". o % : 6._.'.) 9 9 9 9 a U U k . . . . 5.>.n K.Z.=.. .   w.D.q.q.q.0 t.9._ 0 k J } a a a U 9 9 9 9 9 9 9 9 N.}.*.. . . . t ..# ",
". . . . . E./.{ e 9 9 : # . . . . . . . . C }.<.b . . . . o | 9 9 9 9 9 9 W >.r.5.g g g g 9 9 9 9 9 9 9 9 9 N.}.*.. . . . t ..# ",
". . . . . N >.3.Y U 9 : . . . . . . . . . 1 7.l . . . . . o q ~ ~ ~ 9 ~ ~ ~ P.H > . . . o % 9 9 9 9 9 9 9 9 N.}.*.g ! ! ! k < . ",
". . . . . : V 2.U Y i : . . . . . . . . . # 2.m ; . . . . o q ~ ~ ~ a T ~ ! P.C . . . . . # : : 9 9 9 9 9 9 N.}.>.P ^ ^ ^ h # . ",
". . . . . : V }.B w ~ : . . . . o $ > > ; q f.p.! $ . . . o ~ 9 9 9 ~ a q o z.H > > > ; . . . o : 9 9 9 : i J.`.r.< . . . . . . ",
". . . . . : V }.B w ~ : # . . # t j U U U t C U.k.T . . . o ~ # : 9 9 Y T g B.1.U U U U < . . . . 9 9 9 9 K.f._ 9 % # . . . . . ",
". . . . . : V }.B w ~ 9 q g g g g ; . . . . . l.t.g g > . g d # % : 9 0 0 s Z.C . . . # g t . . . 9 9 9 D ).4.W 9 9 , % . . . . ",
". . . . . : V }.k u .., L ..X.~ o . . . o . . l.2.> X.d # X.o . . , 9 9 9 9 N.Z   . . . # U o .   : , , q.}.).t.: : 9 : . . . . ",
". . . . . o n 3.T X.X.X.j # # # . o : 9 # . . l.2.. # k ..# . . . o 9 9 9 : N.).u.X X X $ U X X X O )./.{.h z.}._.V 9 : . . . . ",
". . . . ; ^ e.d.i 9 9 9 : # . . # : 9 9 # o -.P.>.# # o o T $ . . . 9 9 9 : N.C 7 B.B.B.B.Z.P.B._.B.N./ 9 9 9 : G / g | U ; ; ; ",
"1 1 1 1 ..6 A *.: , , 9 9 9 # # 0 9 9 9 9 : ,.D d q 9 - o . ~ . . . , d d d l.v o . . . . > Y $ B.# 9 : 9 9 9 9 w y./.9 k #.#.#.",
"8.8.8.8.X.9.z.*.# # $ 9 9 9 : : 9 9 9 9 9 : 2.l.w.2.: : : : ~ . . . $ f.w.w./ 6 o . . . . > U $ B.o 9 9 9 9 9 a Y M./.e i.V.V.V.",
"l b ) M M._.}.*.#   o 9 9 9 9 9 9 9 9 9 9 V U.G B W _ 9 9 9 j P : 6.u.B B B 9.u.u.F . . . # t U P.o 9 9 9 9 9 a Y h V n.l.l l l ",
". . o U $ o n _._.M.9 9 9 9 9 9 9 9 9 W._.4.0 0 9 0 / ( 0 9 h _._.h 0 9 9 9 0 : o A C . . l _._.#.. o : 9 9 ~ T 0 9 6 L.o . . . ",
". . o o  .o .   u.}.`.`.`.`.`.`.`.`.`.o   X # : 9 0 / }.`.`.M.i ^ i 9 9 9 : # # . A }.}.}.w.    ~ . . : 9 9 ~ ~ 9 9 6 L.> - o . ",
". . . . ..# . # _ 9.q.K.9.9.9.9.9.9.9.o . . . % : : B F.}.}.>.e ~ a 9 9 9 : o . . A `.!.6.H . o ~ . . $ : 9 ~ ~ 9 9 < 2.B : % % ",
"% . . . d P d : 9 9 0 _ V 0 9 9 9 9 : . . . . . . . % f S }.: e ~ a 9 9 9 : % % % A 6.A . . . o ~ . . . % : ~ ~ 9 9 9 q y.9 9 9 ",
": @ . . : a j j 9 9 9 q >.n.0 # # # o . . . . . . . . . o [.o > ~ a 9 9 9 9 Y | U G C . . . < U < . . . % 9 u j L 9 9 q y.9 9 9 ",
": % # # : 9 i L L L a : _ `.< . . . . . . . . . . . . . o [.# g U q 9 L L L I U I Q *.C . $ j U > . . . : 9 9 u I q q G ) 9 9 9 ",
"9 : % : 9 9 9 L T ....0 C M.7 . . . . . . . . . . . . . o }.< U a a a ~ T T e 9 a I >.l.r 6 I e 9 # # # : 9 9 9 L L g U., 9 9 9 ",
"9 9 9 9 j L L L L L Y U . . ).. . . . . . . . . . . . 7 v <.g $ g k j : : 9 9 9 i U g d h.4.B 0 9 9 9 9 9 9 9 9 9 Y @.U., 9 9 9 ",
"9 9 : / k.k.k.k.~ s 0 L < o ).. . . . . . . . A ,.,.,.M.}.. . . . . . $ : 9 9 9 9 a L j ..q >.1.q 9 9 9 9 9 9 9 9 Y @.R./ : : 9 ",
"9 9 9 q.`._.`.`.B , : j h O !.. . . . . . . @ n.`._.`.}.}.. . . . . . , 9 9 9 9 9 9 9 0 O.9 V Z.d 9 9 9 9 9 9 9 9 ~ 3.}.q.: # : ",
"9 q 9.{.+.# o : l.}.x.K j.}.$ . . . . . . # ,.}.<.> P ,..X. . . . . . 9 9 9 9 9 9 9 9 9 0 T W I.g 9 9 9 9 9 9 9 0 y.!.}.w.# # o ",
"V `.K.$.~ o . - 9 9 d N.E.}.$ . . . . . . C K.3 d T . . o [.. . . . . 9 9 9 9 9 9 9 9 9 9 a ^ k w.h h h h n.Z.q.>.N.h.9 B z.z.7 ",
"_.u.b U # . o : 9 9 9 9 ' '.7 . . . . . 7 H A ; d U . . o z.7 2 o . . : : 9 9 9 9 9 : : 9 a $.~.d N.N.N.M.j Y @.1.q 9 9 : . . 8.",
"Y.3 $ U # . # : 9 9 9 9 ' `.z.o o . . . M.z.A P k ; . . o 7 z.6.4 @ . # : 9 9 9 9 0 % # 9 9 W P.d h h h k ~ a a -.B : : # . o 4 ",
"3 . . U $ . # 9 9 9 9 9 q k '.q.: : 2.n.`.7.B < # . . . . . 7 n 9.B.  : 9 9 9 , : : o o : h f.e.q 9 9 9 9 ..e 9 q 4.f.: . . . 8.",
". . . . ..o . - 9 9 9 9 9 9 9 }.}.}.}.X.X.X.d ~ k . . . . . . . .   }._.3.0 0 r.}.}.}.}._.B C.#.q 9 9 9 9 ..e 9 9 q.E.. . . . I.",
". . . . ..# . o o o o % 9 9 9 , f u.B 9 9 : o ~ k . . . . . . . . X }.O H '.'./ , $ X X   D.U ; o o 9 9 9 9 T Y 9 q.E.: . . . I.",
". o . < g $ . . . . . # : 9 9 q >.3.d 9 9 : . ~ k . . . . . . . # C }.X b 3.3.B 9 < i i g G.~ j # . - % : 9 ~ ~ 9 q.E.9 # . . L.",
",.  . U # . . . . . . # : 9 9 d ).f.g : 9 : # ~ k . . . . @ 6 6.6.( G $ , 9 9 9 q g t t d l.t d P P . . # : ~ T 9 q.E.9 9 % . n ",
"_.l.} t . . . . . . o : 9 9 9 0 V n.K.N., 9 j < # . . % : 9 q.h h 0 9 9 9 9 9 9 a g . . $ u.. . ; > ~ t . Y a q 9 q.E.9 9 9 : # ",
"}.`.D.7 . . o . . . o 9 9 9 9 9 d q.,.G 2.G I > . . # , 9 r.V 9 9 9 9 9 9 9 9 9 a g . . o *.F O . . d j ; ~ , : 9 q./.9 9 9 9 # ",
"u.Z.B.A # . . . . . o 9 9 9 9 9 d w.m 9 '.q.U q ; # : d m }.9 9 9 9 9 9 9 9 9 9 9 g # . . 3 6.c o . o g < U < : d 4.g.: : 9 0 7 ",
"# X.t A F O . . . . o 9 9 9 9 q J -.2 9 1.f.q.E I L L r.`.}.9 9 9 9 : : : : : : - g d . . . b P.*.Z Z V > C r.r.4.k 9 9 : h G =.",
"k d j P !.B P P P P P U a 9 9 d K.x o 9 9 k G.w.t.D.D.3./ }.9 9 9 9 % # # . . o . g d . . . b K.H A s.5.6.!.3./ E I U U Q >.A # ",
"^ $ P X.!.` X.X.X.X.X.X.U q : f P.x o 9 0 L j.'.'.'.'._ q .X> 9 9 : # . . . . o . g d . . . b K.2 # o.k.}.}.k 0 0 Y X.X.e.6.$ # ",
". . . . c.* # o . . . . d ..0 }.Z.b # 0 ..U 9 9 9 9 9 U X.0 M.0 0 T ..o o . . . # g t . . # n K.2 # ..g 6.}.L 0 0 0 0 0 D 6.$ ~ ",
". . . . . q.z.6.l l l l l l _.P.U t P ! : : : : : : $ d ~ a f.B ~ q 9 ~ j # . . > g . . # F R.l.1 . o i d K.M.n.n.n.n.M.w.g ! # ",
". . . # # # x w.w.w.w.w.w.w.w.B.% j d . . . . . . . . . o T { N.h 9 9 9 a g < < t t . . n 8.=.; . . . . j E.k 9 9 9 9 q D.P # . ",
". . . : : : < d d d d d d d d B.# $ U o . . . . . . . . # e k N.h 9 9 9 0 U ~ ~ U # . X z.1 ; # o . . . , P.k 9 9 9 9 q D.L # . ",
"o : : 9 9 9 9 9 9 9 9 9 9 9 9 B.. . ~ # . . . . . . . . # 9 h _.L.f 9 9 0 Y < ; 7 B.B.P.2 . . . o : : : 9 K.k 9 9 9 9 p `.,.$ . ",
"9 9 9 9 9 9 9 9 9 9 9 9 9 9 u l.# O ! # o . . . . . . . . 9 h N.h l.!.!.!.!.!.!.'.`.C . . . # : 9 9 9 , ! P.g 9 9 9 9 9 B !.!.1 ",
"9 9 9 9 : 9 9 9 9 9 : 9 0 0 U.2 _._.l ..o o . . . . o o o o k M.h 9 9 9 0 Y a 9 B 4.9 , . # 9 9 9 0 0 I D.d 9 9 9 9 9 9 a Y e U.",
"9 9 9 9 % , 9 9 9 9 9 $ B >.F $ *.H =.h j 6 . . . O =.=.=.=.3./ q 9 9 9 0 Y a 9 B 4.9 : % : 9 9 9 I I L f.d 9 , $ : 9 9 e L I E.",
"9 9 9 : @ , 9 9 9 9 : 7 =.n o . . o l 6.] P . *.7.2.n n n n V 9 9 9 9 9 0 Y e 9 h 3.9 9 9 9 9 9 U a a a q.d % # . # % $ 9 q a U.",
"K.K.K.K.$ # % 9 9 9 i 6.$ . . . . . 6.2 ~.U.K.c 1 1 . . . . 9 9 9 9 9 9 0 Y ..a 0 ( W 9 9 9 9 9 ..9 0 _ C # . . . . . . % 9 9 U.",
"8 $.V 7 ;.z.B.N.N.N.u.d : , o . . . u.# %.Q 7 $ . . . . . . 9 9 9 9 9 9 0 Y t U U q 2.N.N.N.N.N.P.N.N.:.$ . . . . . . . . o @ L.",
"# X.t . 6.8.8.8.l.w.9.e a a o . . . -.b +.k . . . . . . o . 9 9 9 9 9 9 0 Y ; d U e 9..Xi.w.w.u.V.l.'.2.N o . . . . . . o 1 z 8.",
"# X.U ; Z &.&.&.=./ 0 L I I g # # . c [ U L > # # . . . # % 9 9 9 L L L L j # . # j y.'.: 9 9 9 ..; *.*.H &.&.&.&.&.&.&.&.*.=.$ ",
"o q < >.V e.p.' V G y.r.Y Y X.0.0.q.U.q.q.f.f.9.0.,.. . # q.q.q.q.D.j j i $ . . . ; 9.`.0.5.Y Y t . . . . x n n n n C Y.c 7 o . ",
".   X 0.q T ..L , B '.C.X.R @.`.]././.E.E.E./.E.~.N.$ $ 3 E.E.E.E.E.6 6 1 . . . . o 9.XX/.P.{ ] $ . . . . . . . . . 1 R.. . . . ",
"; 4 6.B 0 9 0 L ..O.o.).2.t '.Z.| ....9 9 9 I i / R.!.).E.9 9 9 9 9 W.W.,.> > > > :.!.E.& !.u.y # . . . . . . . . . + c.$ $ $ ; ",
"w.q.B 9 9 9 9 9 ~ ~ : D B.w.w., 9 9 9 9 9 9 j s u , G >.g a 9 0 a a a a / w.8.8.8.q.x . . 5 l.!.2 . . . . . . . . . o % 4.4.).f.",
"9 9 9 a j j a 9 ~ ~ 9 D >.0 9 9 9 9 9 9 9 9 9 L I a / 5.U Y j L U U U U I > . . . . . . . . b K.2 . . . . . . # % % % : V }.}.q ",
"9 9 , Y ....Y 9 ~ ~ 9 D >.0 9 9 9 9 9 9 9 9 9 0 L T / _ 0 0 ..T a 0 0 0 L q . . . . . . . . b K.1 . . . . . . # : : : 9 V }.}.q ",
"9 0 I a 0 e j ..X.~ 9 D >.0 9 9 9 9 9 9 9 9 9 9 0 g R._ 0 9 0 0 9 9 9 9 e Y ; . . . . . . . b K.E.. . . . . : : : 9 9 9 0 _ ).q "
};
