/* XPM */
static char *aa69b5c3267c4c708da73c33bbfae2e3s75PoEDhxbmd9QJm[] = {
/* columns rows colors chars-per-pixel */
"64 64 139 2 ",
"   c #6C4537",
".  c #6E463A",
"X  c #70473A",
"o  c #734B3C",
"O  c #7A4F3C",
"+  c #76513E",
"@  c #7B503D",
"#  c #774F40",
"$  c #765141",
"%  c #7C5341",
"&  c #8E5335",
"*  c #8E5638",
"=  c #925636",
"-  c #975A36",
";  c #9A5D37",
":  c #925738",
">  c #955C3A",
",  c #9C5E3A",
"<  c #A05F3A",
"1  c #9B6037",
"2  c #9E623B",
"3  c #A36337",
"4  c #A3653C",
"5  c #A8673C",
"6  c #A6683E",
"7  c #AB6B3D",
"8  c #B16E3E",
"9  c #AA713E",
"0  c #B1703F",
"q  c #845944",
"w  c #935D43",
"e  c #8B634B",
"r  c #9D6643",
"t  c #9E6946",
"y  c #9E6A49",
"u  c #A36640",
"i  c #A46A43",
"p  c #AC6D41",
"a  c #A46E49",
"s  c #B16E41",
"d  c #A77147",
"f  c #AD7144",
"g  c #A6724C",
"h  c #AB734A",
"j  c #AE794D",
"k  c #B47344",
"l  c #BA7644",
"z  c #B67847",
"x  c #BD7946",
"c  c #B27649",
"v  c #B97748",
"b  c #B57A4B",
"n  c #BB7D4B",
"m  c #AA7650",
"M  c #AC7A52",
"N  c #B37D51",
"B  c #B97E51",
"V  c #C37D46",
"C  c #C37E49",
"Z  c #C87F48",
"A  c #B3804F",
"S  c #BD814E",
"D  c #B68153",
"F  c #BC8452",
"G  c #BF8856",
"H  c #B58559",
"J  c #B98659",
"K  c #BD8A5B",
"L  c #C68047",
"P  c #CA8247",
"I  c #C4824B",
"U  c #CC844A",
"Y  c #C6884F",
"T  c #CE894E",
"R  c #D0864B",
"E  c #D18A4E",
"W  c #C38651",
"Q  c #C98750",
"!  c #C48A54",
"~  c #CC8C52",
"^  c #C38D5A",
"/  c #C88F59",
"(  c #D18D52",
")  c #CE9156",
"_  c #C5915B",
"`  c #CC935A",
"'  c #CE995E",
"]  c #D39255",
"[  c #D59456",
"{  c #D79757",
"}  c #D39358",
"|  c #D39559",
" . c #D79759",
".. c #D0975E",
"X. c #D69858",
"o. c #D4985A",
"O. c #D3995E",
"+. c #D69B5D",
"@. c #D59B5E",
"#. c #D8985A",
"$. c #DB9B5C",
"%. c #D99C5D",
"&. c #CE9B67",
"*. c #D39C62",
"=. c #D99F63",
"-. c #DBA162",
";. c #DBA066",
":. c #DAA267",
">. c #DFA467",
",. c #DFA867",
"<. c #D7A36A",
"1. c #DAA46B",
"2. c #DFA569",
"3. c #DBA86D",
"4. c #DFAC72",
"5. c #DFB075",
"6. c #E0A769",
"7. c #E2A76A",
"8. c #E2A969",
"9. c #E4AB69",
"0. c #E4A96A",
"q. c #E4AB6B",
"w. c #E4AB6C",
"e. c #E4AD6C",
"r. c #E5AE6D",
"t. c #E7B06F",
"y. c #E7B16F",
"u. c #E4AE71",
"i. c #E0AF74",
"p. c #E6B272",
"a. c #E7B373",
"s. c #E7B472",
"d. c #E4B577",
"f. c #E4B777",
"g. c #E9B474",
"h. c #E8B574",
"j. c #EBB977",
"k. c #E6B879",
"l. c #EBBB79",
/* pixels */
"3.s.g.1.3.8.f n C L k R n m C U C p V ~ I N F k 2 . 7 U x z T S s.9.9.9.9.w.g.g.4.:.2.7.2.8.>.7.>.:.-.7.9.l.d.5.4.5.d.j.t.8.9.t.",
":.] ( ) ] I 2 k C U i U I g L U l W V n Y @.k k i o U ) T T T G g.E E ( R Q U Y f - 7 L U U R U U U U P U ] l k l x x I E P C L ",
"-.[ I ~ ( F 6 k U U 4 U n H Q U p ! i k ~ T 4 k J % L p ~ F ~ S p.Y n n n I I z p p C U U U P P U U L V U U R T R T P R U V V V ",
":.] S S k @.9 T ( R 5 U n J ( V n F z I E U z l O.% ( G k x I P 8.V V l x V U Q L U E [ o.X.[ [ ] #.o.) Y S k k k p k W ] o.| T ",
"=.] ~ U p ] 8 L I U l U n b U W ` F ) ~ U R ` ~ | q ) F x V V U l.$.] } @.*.! ( W 6 4 u 4 4 2 p k z n L L I V V k p p n ! *.O.( ",
"2.E ] ( W P 0 S n U U ] n b U @.] n n l R U ( ~ U % c p U I U P g.| ( } [ ) C k I U ( E I U U P U U U U U U P P P U U P U U U R ",
"p.U E E o.P 7 W f V U | F m k } U k x n U V U V n @ 4 p 7 6 7 7 c u 2 > : - 4 4 4 7 f k k k i 6 6 p 7 8 p 8 8 7 7 ; 7 4 7 5 5 7 ",
"r.U U U ] P 6 S I ~ R ) n y 5 U U n x l 7 7 U T T O V I W x Z R ( } ) F k p 4 4 p F / ` ` F k k V U R U U R U R R + P 4 C s l E ",
"9.P Z U U U 2 p I ) E ) n m i U U W 4 c 4 4 T E E @ f L ( ~ n s 8 x U ~ ~ ~ ~ I I I W } ` c i s l l l k l V V V V O L 6 Y k s U ",
"9.Z V P U U 1 4 n ) ] | n J b U U Q n ` J 2 U E E @ l L U U C C Z Z U U T P ( (  .} } ~ W n k k l l 8 p u u d s k o U 6 T z 5 U ",
"9.U l U R U , r l ) ] [ F J o.U C I ] Y o.< U R T O ! S S G ! ! C I ( ] $.*.F p > p I P U Z Z U P R R U R U R R R @ U p ` S p I ",
"9.V k U U U 2 p k ~ ( ( n n ~ x C Q L ~ #., R E R O U U P P C U U E R U P ~ | b , p Q P V l v n C p n } ] } } / W + U i ] n ^ R ",
"9.V l U U C 4 F B U U E n n k z T W k S W i n F I * F S b f a h D ^ ! N h c C B n n _ j h b J ^ _ ! ! J ! ! / ` &.% U S ~ ! @.T ",
"9.Z l U U C p ~ | E U U C B n n T I 7 n H j h g H F N n c d a m D B B c a a r a y g H K ! D B b a M N a N y N B b o C ] U ) @.L ",
"t.I V U U U p ~ ~ U s U n b ) W ! C 7 n ~ L f ~ U U I ~ ~ b 4 f ( n ( U C V V x f p j ! | ( U U s c ! s ] k U R C o x E T ] ~ l ",
"9.I C U ) U p Q x V p U n c #.! f U 0 ~ | W C k W E U U U U U P Q I ] V k v W ~ ~ } ~ Q n k Q | U p z B ] b U U V o l P ( [ U 7 ",
"=.C I U 4 P i I k l p Z W N Q ( u ~ x T U U U I v , h / | ] ] | U V U U T R L k z ! ' @.| ~ U T V U C ~ ( d R U U % k R Q R V b ",
"=.C C R , U 6 W k l 5 U C m C ( , ~ S ) o.~ l 7 n ( U R U x k b | ~ x Q | ( L V I I I x 4 2 / T P U V ~ T s U I Z O k R Z R x ` ",
"1.l n R 2 P 4 n V C 2 U C N V C , Q l I T I I x l W Y I x 9 4 ! U V C V V k 7 p k k I ~ x f ! l L I V U U l Z V V O k U V U V } ",
"i.s v U i U , k ( U 2 ( B g p C W C k F ~ I Y I P Y U I P P V I U I L U U V p ! ~ k f S F F I l F } V I U V V l v O k U U U V k ",
",.8 l T k U 2 S @.T k | n t b -.U U k i S ` @.@.| ` b 6 p b ) @.o.[ [ ] ( E U C k b ~ ] W H I L p ~ V I R U V V l O l U U U V ; ",
",.x l T k P 6 U C U U Q n r , , Y E k f _ @.%.%.@.S > 2 i c ` =.-.-.-.%.*.-.#.[ ] T T P W J U U p U V Z R U l V k O x U U R V : ",
"8.L x T l P 3 L T ~ ~ i K B T I v C ( ( I x l 0 8 P P V p 5 p k l n x z p i f 7 p 6 7 k D ^ ( R U U l V R U s l 6 . S U R E l h ",
"7.U T E k P 5 T I I l , a H ~ Q n v l k 0 0 l Y ] ( E R P Y U U V k k k l l x x V L V l h F R R ] U 0 V U U s l , X T U R E k / ",
"u.U T E k U p ] 9 L U p r F ~ ~ l k k s k s l Y ( ( ( U V l k ` ~ z p p p h h p k F ~ ! H J U U ] P x C P l Q C F % ~ R T T 7 @.",
"p.U ( ( S U 2 % o O O o o + @ O O + O + @ O O O O @ @ @ o o o O % O O o o # o o o + % % e J R R ] Y z I U n ~ ( ~ o ] U P U 5 @.",
"p.U ( E | V 0 [ ] ] [ [ o.` S j i 4 2 r a F ` *.( U U U U U P C x l l P Z l 6 I n C o.C h ^ T R ` C 7 U U ~ k I k o Y P V V 6 ] ",
"g.R E E #.U 7 T T T T T I L ] ) b f b W / ! B n s 7 5 p 7 k x 8 4 < p ^ *.U 7 l Y I | Z a J T U ` P U U T } ~ C p . l C x x 6 | ",
"p.U V U } U 9 ` o.o.O./ b k L ) o.] E I v s s x Q ( ( | F f z n ~ ( ( I l l 4 V C l ^ U f M U T  .U L U P R $.U p X s k k n n ` ",
"r.Z k C n E 7 L U I U L T S l x I U Q Y I n n V n n n S S k k k c b b b l k 4 ~ s 7 J U c g T U  .P x Y V C P n n % 7 p x n ) ! ",
"t.Z k l k ~ 7 ] [ T T k L I x P E E U U V k p u 6 , 4 5 x V P V l k p p r , 4 U 8 p N U b g ~ U [ L x T s V P Q ~ % p f S S ~ ` ",
"p.I F v p T 5 c F z , 4 k L U T U I V s u < < u 4 i p p 7 k k s s p p h 7 4 4 C p 4 F U n h ) U ] V k I 6 V U ! ( O n ` F S ( ' ",
"1.u.w.*.1.k.g.r.7.i.g.2.=.1.g.t.w.7.7.7.r.r.r.7.2.*.` &.u.l.t.9.g.9.r.r.1.l.b 8 5 7 / U b d ~ R ~ C k k i C U ~ ( @ } ] f ! ~ &.",
"*.b ] U L p p b W Y ~ ] ] R P V V x x C C n I U x k 6 8 ! ( C V 9.Z U R ~ ` 4 7 4 4 *.U z c ! U U I l z F L U ~ ( @ #.I F ' E ` ",
"1.I ( ( L U ~ U l l W | ( U U R U U U R Z s 7 S } T R U U V p , 9.Z C U  .P 3 5 4 4 #.U c c b R T I n k G V U T E O ( U ' ! T G ",
"p.( R U I I n I I I ~ I p 7 7 7 7 n ~ ] E l f ~ E U U R U U C x 9.Z C P R P 4 7 4 4 E U c B s Q ~ L n p n k U W T + U E ' S L i ",
"*.4 p n ~ ( U V k F o.~ V p < , 4 f B ~ ] ) U T U k s n ~ | #.( 9.U C Z U U 7 c 7 , P U b N C C 4 ) L z n k U W E @ P T o.I U 4 ",
":.s , & p @.~ P P l k ! ) E U U z p W | [ ~ T U U C Z U U l f b 9.I L x P U 5 I s 2 U U n n U l , n x l n s L W ] + U U ) ~ U p ",
"f 4 4 4 , 6 7 7 7 8 7 4 , i 8 7 9 7 7 4 6 6 7 7 k ; 5 7 5 7 5 7 w.U P x P U 6 I k p U C F N U V , 7 I n C s P I ~ @ 6 3 f 7 4 4 ",
"P U ] G p V P E ( ( ~ V x U U I I I ~ T T I S ~ ] % P f l U s U 9.C V I P P 6 V s F I s B c U V , p W V W V U I ~ @ U P ] ! p V ",
"T E Q S n V U U ( ( ] ! n n I C C I U ~ U x I Y ( + E p Z E I ( 9.k I C U U 5 P k ` 7 n B h Z Z 6 k n x ~ U U W T + U U I I x I ",
"x T T ` b V U R ( ( b 2 p I E o.@.] U U U p S } C O b W U U U I 7.u U Z R R 5 P x ` d ` n d Z U , f k x ) V U I U @ l l C Y Y p ",
"( A ; k R U E [ #.] U l U [ W k l k u S %.] n ] -.% & p U U ] p *.p ( Z U U 4 Z n ` h @.n g Z C < f p I ] k U I I O 8 x U V U P ",
"o.z I ) z p x I C x U U R U ( #.#.#.#.] ( T T U R O , V / U z ` 1.I ( Z U V 2 x C ` u *.C g Z V < p p U U V U x n + U T I U U #.",
"n S n S n ! ! ^ J b b b n F F ! _ _ ^ _ _ ! G S S % x Z p Y I k g.! P C U l 4 ~ Q ! 2 ..n g V s , i p C n b n c b q K ^ F N c n ",
"a B D n F m y n B F K H y w t b N M i h A h r j d . I U 7 C C V p.~ Z k Z s 4 I ~ ^ i ) x d V 5 4 p z B j F N N g f b D b N n J ",
"V ~ I I | d l U U T @.| h , z T | b n n U z 4 l 7   ] U V ( I ( r.~ s s Z p , 4 U | p N n h p , j z n z V U ] n n Y T T C E ] b ",
"f 4 V ~ k & 6 l U U U ( Q F k I U T W W Y F u Y 4 . b $.] I W ) r.Q 7 p C b , , I =.i p B h < : F W n k P P ~ 4 V E ) x ~ n | ^ ",
"V ] =.W 6 5 x [ o.z 7 n U P Y l I I x ~ L N i ~ 4 . s W ~ n C c 9.Y 6 j f ' 4 , n ] c p B c < = f ` Q p U ~ S V T I ) 7 T T I 9 ",
"U U U U R U U U T ~ I n L Y I E p Y x ~ I f 4 ] 7 . P p C ) T p 9.I f ~ 6 %.6 b U k ! p I c < = f F Q Y T I ~ x U ~ 2 I ) c s L ",
"x I I V k k 8 k U / 6 7 x b z C I k 7 ~ I u p ( k o ~ U U n I 7 9.T / ) 4 %.9 @.( 2 ..b F c , : f f n l V ~ f l L f x L W , 6 l ",
"L I T U x p i ! n F a 7 F z p I I 7 5 W C 6 p ] I o b ( P l I 6 r.U ] x F %.0 %.( c ] ! F h u c ! Q U P U b z Y T x I U C V C V ",
"k 6 6 k I Q U I Y T n f H d n U I k s Q l i k ] ~ $ 6 n ( x V p 9.k E W *.$.9 | T ` T @.n N l , h ! ) ] T U n k C } ( P P U ~ C ",
"U P R U U P k S ~ V T k r i ` T V f n I z 6 b U I o P p  .x V p 8.7 R | -.$.9 ] U $.P | c n I 6 & z ` @.] U U U U l p p c Q ] U ",
"U I ~ ^ ` ] U l I Y ! V n r Y U l k S I s 6 I n k X U b F V C x 2.n U ] $.~ 8 ( P ( P n h r F I n n b S / o.( L I P ( T x n ~ ] ",
"U x k p f F ] T k I T p j w V U C S I I 7 i Q I 7 o U U l x U V *.] U E @.k 7 R R ( U p b d 8 p k n I W ~ Y I I I W ~ ] k n n Q ",
"T U U I 9 i o.T V k / x a d C I ~ ] Y L p f Y z p . ~ ~ U Z ( U <.U L U #.s 8 P U U U f F h x x C F W b f f f n W ~ | ~ l c ~ ( ",
"+ O O + o o % + O o O O q J ~ k E ] I U b G I k n # z c ( U | ( w.s 7 V ] k 1 O o O O o $ o o X o + % $ o X X X o % q @ O o o % ",
"P P ) ~ i F p I W S z k r ^ n 1 R P V n ~ 1.T ] #.% 4 l I U ~ | i., b I T 7 4 - 2 V U C U | *.*.` J c p L Y n I ) ! r , 7 V U U ",
"V U ( ] G i 6 U I F b l r F b @.U V s 7 ~ | P T 7 X L L k U p n w.j O.~ T 7 7 U U ~ s ] ! U R R U T U U Q 7 T E f i i , 4 7 7 k ",
"U R [ ~ i , 7 Y W x n V r j ~ ( E U f f U U s U n o U C p Y C l r.I %.E T S 7 I U C x ~ Q V V l V P U ( p k U E ~ W n k V U U R ",
"P E ] Y V P 0 Y n n W U p h U U U T n b U V 7 U Q % ~ U k W C U 9.Y ] E P $.5 x ( L n ) ^ k s l V T ~ V U P R ] W Q W n l V R U ",
"U E W z ) n 7 Q C x ! U c h L U U C Q W C > c l C @ c Y W v L U 8.L E R P U 7 P R U ( ] n C U ( ( Q n V ~ ] | @.-.-.` ! z p C R ",
"l R R ~ S I 6 W C V W U n m I U U p U ) C : C k 7 O N k v ( U  .r.I E T T 7 7 [ (  ./ p 8 U ~ i z U ( ( l i 6 2 4 6 4 4 , p U W "
};
